<svg class="{{ with .class }}{{ . }} {{ end }}icon icon-github" width="24" height="24" viewBox="0 0 384 374"><path d="m192 0c-106.1 0-192 85.8-192 191.7 0 84.7 55 156.6 131.3 181.9 9.6 1.8 13.1-4.2 13.1-9.2 0-4.6-.2-16.6-.3-32.6-53.4 11.6-64.7-25.7-64.7-25.7-8.7-22.1-21.3-28-21.3-28-17.4-11.9 1.3-11.6 1.3-11.6 19.3 1.4 29.4 19.8 29.4 19.8 17.1 29.3 44.9 20.8 55.9 15.9 1.7-12.4 6.7-20.8 12.2-25.6-42.6-4.8-87.5-21.3-87.5-94.8 0-20.9 7.5-38 19.8-51.4-2-4.9-8.6-24.3 1.9-50.7 0 0 16.1-5.2 52.8 19.7 15.3-4.2 31.7-6.4 48.1-6.5 16.3.1 32.7 2.2 48.1 6.5 36.7-24.8 52.8-19.7 52.8-19.7 10.5 26.4 3.9 45.9 1.9 50.7 12.3 13.4 19.7 30.5 19.7 51.4 0 73.7-44.9 89.9-87.7 94.6 6.9 5.9 13 17.6 13 35.5 0 25.6-.2 46.3-.2 52.6 0 5.1 3.5 11.1 13.2 9.2 76.2-25.5 131.2-97.3 131.2-182 0-105.9-86-191.7-192-191.7z"/></svg>