<svg class="{{ with .class }}{{ . }} {{ end }}icon icon-google_scholar" width="24" height="24" viewBox="0 0 360 360"><g transform="translate(0.000000,400.000000) scale(0.100000,-0.100000)" fill="#ffffff" stroke="none">
<path d="M1107 3182 l-537 -467 338 -3 339 -2 6 -98 c11 -179 59 -287 181 -408 134 -133 263 -185 468 -185 l117 0 -14 -39 c-38 -107 -24 -204 45 -313 22 -35 40 -67 40 -71 0 -3 -21 -6 -47 -6 -75 0 -305 -37 -411 -65 -179 -49 -353 -148 -434 -247 -106 -130 -142 -229 -136 -376 3 -87 7 -105 41 -176 53 -111 151 -208 267 -264 396 -191 1015 -122 1311 146 206 186 289 467 206 694 -53 145 -112 218 -302 370 -143 114 -199 170 -220 220 -39 94 -12 144 174 327 115 113 156 160 179 207 51 101 66 167 66 289 0 119 -16 189 -61 278 -13 27 -23 50 -21 52 45 37 480 375 482 375 2 0 6 -8 8 -18 9 -34 -11 -134 -37 -188 -27 -55 -27 -56 -33 -347 -9 -481 -7 -737 7 -780 42 -126 172 -143 224 -29 21 45 22 60 21 302 -1 170 -7 302 -18 395 -14 116 -15 158 -6 252 13 126 10 146 -31 250 -22 53 -29 88 -29 138 0 89 22 129 104 191 36 27 65 52 66 57 0 4 -408 7 -907 6 l-908 0 -538 -467z m1001 44 c150 -76 268 -279 318 -544 21 -114 15 -255 -15 -333 -47 -124 -165 -208 -305 -217 -174 -11 -309 82 -409 283 -131 264 -136 577 -10 724 74 87 159 123 283 118 69 -3 95 -9 138 -31z m254 -1841 c234 -175 318 -320 289 -498 -29 -173 -141 -282 -350 -339 -112 -31 -331 -31 -456 0 -269 67 -428 221 -442 429 -16 225 117 379 394 458 115 33 184 42 323 44 l115 1 127 -95z"/>
</g></svg>