<svg class="{{ with .class }}{{ . }} {{ end }}icon icon-instagram" width="24" height="24" viewBox="0 0 256 256"><circle cx="193" cy="59" r="15"/><path fill-rule="evenodd" d="M101 0h54c41 0 58.4 3.9 74.5 17C256.2 37.5 256 74.8 256 97.7v60c0 26.7 0 60.4-26.5 81.4-16 13.4-33.5 16.9-74.5 16.9h-54c-41 0-57.5-3.5-74.5-16.9C1 218.9.5 186.3.1 160.5L0 155V97.7c0-23-.2-60.2 26.5-80.7C45 2 60 0 101 0zm4.9 23h44.3c45.8 0 58.3 3.5 70.3 17.5 11.8 13.2 12 30.1 12.5 62.9V156c.2 20.8.3 45.8-12.5 59.5-12 14-24.5 17.5-70.3 17.5h-44.3c-45.9 0-57.3-3.5-70.4-17.5-12.2-13-12.3-36.5-12.4-56.7v-55.6c.4-32.6.7-49.6 12.4-62.7C48 26.5 60 23 105.9 23zm19.6 144.5a42 42 0 1 0 0-84 42 42 0 0 0 0 84zm0 22.5a64.5 64.5 0 1 0 0-129 64.5 64.5 0 0 0 0 129z"/></svg>