<svg class="{{ with .class }}{{ . }} {{ end }}icon icon-linkedin" width="24" height="24" viewBox="0 0 352 352"><path d="M0,40v272c0,21.9,18.1,40,40,40h272c21.9,0,40-18.1,40-40V40c0-21.9-18.1-40-40-40H40C18.1,0,0,18.1,0,40z M312,32 c4.6,0,8,3.4,8,8v272c0,4.6-3.4,8-8,8H40c-4.6,0-8-3.4-8-8V40c0-4.6,3.4-8,8-8H312z M59.5,87c0,15.2,12.3,27.5,27.5,27.5 c15.2,0,27.5-12.3,27.5-27.5c0-15.2-12.3-27.5-27.5-27.5C71.8,59.5,59.5,71.8,59.5,87z M187,157h-1v-21h-45v152h47v-75 c0-19.8,3.9-39,28.5-39c24.2,0,24.5,22.4,24.5,40v74h47v-83.5c0-40.9-8.7-72-56.5-72C208.5,132.5,193.3,145.1,187,157z M64,288h47.5 V136H64V288z"/></svg>