<svg class="{{ with .class }}{{ . }} {{ end }}icon icon-lofter" width="24" height="24" viewBox="0 0 206 206"><g transform="translate(0.000000,218.000000) scale(0.100000,-0.100000)" fill="#ffffff" stroke="none">
<path d="M716 1859 l-27 -21 3 -507 3 -506 23 -47 c13 -27 42 -63 64 -82 71 -61 105 -68 383 -75 238 -6 252 -7 287 -29 38 -24 78 -77 78 -106 0 -14 -21 -16 -197 -16 -179 0 -201 2 -240 21 -24 11 -43 25 -43 30 0 11 -54 39 -75 39 -55 0 5 -93 87 -134 51 -26 55 -26 278 -26 260 0 260 0 260 82 0 92 -95 186 -209 208 -29 5 -144 10 -254 10 -129 0 -214 4 -241 12 -60 18 -111 75 -125 137 -15 69 -15 961 -1 961 51 0 122 -65 140 -128 6 -23 10 -196 10 -448 0 -397 1 -411 20 -432 12 -12 27 -19 35 -15 14 5 15 60 13 462 l-3 456 -23 44 c-29 54 -65 88 -117 112 -53 24 -96 24 -129 -2z"/>
</g></svg>
