<svg class="{{ with .class }}{{ . }} {{ end }}icon icon-mastodon" viewBox="0 0 16 16" width="24" height="24"><path d="M15.659 9.592c-.235 1.128-2.106 2.364-4.255 2.603-1.121.125-2.224.239-3.401.189-1.924-.082-3.443-.428-3.443-.428 0 .174.012.341.035.496.25 1.772 1.883 1.878 3.43 1.927 1.561.05 2.951-.359 2.951-.359l.064 1.317s-1.092.547-3.037.647c-1.073.055-2.405-.025-3.956-.408C.683 14.746.104 11.4.015 8.006c-.027-1.008-.01-1.958-.01-2.753C.005 1.782 2.443.765 2.443.765 3.672.238 5.782.017 7.975 0h.054c2.192.017 4.303.238 5.532.765 0 0 2.438 1.017 2.438 4.488 0 0 .031 2.561-.34 4.339Zm-2.535-4.07v4.203h-1.785V5.646c0-.86-.388-1.296-1.164-1.296-.858 0-1.288.517-1.288 1.541v2.233H7.113V5.891c0-1.024-.43-1.541-1.288-1.541-.776 0-1.164.436-1.164 1.296v4.079H2.876V5.522c0-.859.235-1.541.706-2.046.485-.505 1.121-.764 1.911-.764.913 0 1.605.327 2.062.983L8 4.39l.445-.695c.457-.656 1.149-.983 2.062-.983.79 0 1.426.259 1.911.764.471.505.706 1.187.706 2.046Z"/></svg>