<?xml version="1.0" encoding="UTF-8" standalone="no"?>
<!-- Generator: Adobe Illustrator 19.1.0, SVG Export Plug-In . SVG Version: 6.00 Build 0)  -->

<svg
   xmlns:dc="http://purl.org/dc/elements/1.1/"
   xmlns:cc="http://creativecommons.org/ns#"
   xmlns:rdf="http://www.w3.org/1999/02/22-rdf-syntax-ns#"
   xmlns:svg="http://www.w3.org/2000/svg"
   xmlns="http://www.w3.org/2000/svg"
   xmlns:sodipodi="http://sodipodi.sourceforge.net/DTD/sodipodi-0.dtd"
   xmlns:inkscape="http://www.inkscape.org/namespaces/inkscape"
   version="1.1"
   id="Layer_1"
   x="0px"
   y="0px"
   viewBox="0 0 24 24"
   xml:space="preserve"
   sodipodi:docname="ORCIDiD_iconbwvector_24.svg"
   width="24"
   height="24"
   inkscape:version="0.92.3 (2405546, 2018-03-11)"><metadata
   id="metadata19"><rdf:RDF><cc:Work
       rdf:about=""><dc:format>image/svg+xml</dc:format><dc:type
         rdf:resource="http://purl.org/dc/dcmitype/StillImage" /><dc:title></dc:title></cc:Work></rdf:RDF></metadata><defs
   id="defs17" /><sodipodi:namedview
   pagecolor="#ffffff"
   bordercolor="#666666"
   borderopacity="1"
   objecttolerance="10"
   gridtolerance="10"
   guidetolerance="10"
   inkscape:pageopacity="0"
   inkscape:pageshadow="2"
   inkscape:window-width="1920"
   inkscape:window-height="1034"
   id="namedview15"
   showgrid="false"
   inkscape:zoom="20.85965"
   inkscape:cx="29.359515"
   inkscape:cy="12.288698"
   inkscape:window-x="0"
   inkscape:window-y="181"
   inkscape:window-maximized="1"
   inkscape:current-layer="Layer_1" />
<style
   type="text/css"
   id="style2">
	.st0{fill:#000000;}
	.st1{fill:#FFFFFF;}
</style>

<g
   id="g831"
   transform="matrix(0.09375,0,0,0.09375,0,21.75)"><path
     style="fill:#000000"
     inkscape:connector-curvature="0"
     id="path4"
     d="M 256,-104 C 256,-33.3 198.7,24 128,24 57.3,24 0,-33.3 0,-104 c 0,-70.7 57.3,-128 128,-128 70.7,0 128,57.3 128,128 z"
     class="st0" /><g
     transform="translate(0,-232)"
     id="g12">
	<path
   style="fill:#ffffff"
   inkscape:connector-curvature="0"
   id="path6"
   d="M 86.3,186.2 H 70.9 V 79.1 h 15.4 v 48.4 z"
   class="st1" />
	<path
   style="fill:#ffffff"
   inkscape:connector-curvature="0"
   id="path8"
   d="m 108.9,79.1 h 41.6 c 39.6,0 57,28.3 57,53.6 0,27.5 -21.5,53.6 -56.8,53.6 h -41.8 z m 15.4,93.3 h 24.5 c 34.9,0 42.9,-26.5 42.9,-39.7 C 191.7,111.2 178,93 148,93 h -23.7 z"
   class="st1" />
	<path
   style="fill:#ffffff"
   inkscape:connector-curvature="0"
   id="path10"
   d="m 88.7,56.8 c 0,5.5 -4.5,10.1 -10.1,10.1 -5.6,0 -10.1,-4.6 -10.1,-10.1 0,-5.6 4.5,-10.1 10.1,-10.1 5.6,0 10.1,4.6 10.1,10.1 z"
   class="st1" />
</g></g>
</svg>