<svg
	class="{{ with .class }}{{ . }} {{ end }}icon icon-orcid"
	viewBox="0 0 24 24"
	width="24"
	height="24"
>
<style type="text/css">
	.st0{fill:#000000;}
	.st1{fill:#FFFFFF;}
</style>
<g transform="matrix(0.09375,0,0,0.09375,0,21.75)">
	<path class="st0" d="M 256,-104 C 256,-33.3 198.7,24 128,24 57.3,24 0,-33.3 0,-104 c 0,-70.7 57.3,-128 128,-128 70.7,0 128,57.3 128,128 z" />
	<g transform="translate(0,-232)">
		<path class="st1" d="M 86.3,186.2 H 70.9 V 79.1 h 15.4 v 48.4 z" />
		<path class="st1" d="m 108.9,79.1 h 41.6 c 39.6,0 57,28.3 57,53.6 0,27.5 -21.5,53.6 -56.8,53.6 h -41.8 z m 15.4,93.3 h 24.5 c 34.9,0 42.9,-26.5 42.9,-39.7 C 191.7,111.2 178,93 148,93 h -23.7 z" />
		<path class="st1" d="m 88.7,56.8 c 0,5.5 -4.5,10.1 -10.1,10.1 -5.6,0 -10.1,-4.6 -10.1,-10.1 0,-5.6 4.5,-10.1 10.1,-10.1 5.6,0 10.1,4.6 10.1,10.1 z" />
	</g>
</g>
</svg>
