<svg class="{{ with .class }}{{ . }} {{ end }}icon icon-qq" width="24" height="24" viewBox="0 0 24 24"><path d="m21.40,15.02a39.15,39.15 0 0 0 -0.79,-2.24l-1.07,-2.67c0.00,-0.03 0.01,-0.56 0.01,-0.83c-0.00,-4.56 -2.15,-9.15 -7.45,-9.15s-7.45,4.59 -7.45,9.15c0,0.27 0.01,0.80 0.01,0.83l-1.07,2.67a38.58,38.58 0 0 0 -0.79,2.24c-1.01,3.25 -0.68,4.60 -0.43,4.63c0.53,0.06 2.08,-2.45 2.08,-2.45c0,1.45 0.75,3.35 2.37,4.72c-0.61,0.19 -1.35,0.47 -1.83,0.83c-0.43,0.32 -0.38,0.64 -0.30,0.77c0.34,0.57 5.82,0.37 7.41,0.19c1.58,0.18 7.07,0.39 7.41,-0.19c0.08,-0.13 0.13,-0.45 -0.30,-0.77c-0.48,-0.35 -1.22,-0.64 -1.83,-0.83c1.62,-1.37 2.37,-3.27 2.37,-4.72c0,0 1.55,2.51 2.08,2.45c0.25,-0.03 0.57,-1.38 -0.43,-4.63z"/></svg>