<?xml version="1.0" encoding="UTF-8" standalone="no"?>
<svg
   xmlns:dc="http://purl.org/dc/elements/1.1/"
   xmlns:cc="http://creativecommons.org/ns#"
   xmlns:rdf="http://www.w3.org/1999/02/22-rdf-syntax-ns#"
   xmlns:svg="http://www.w3.org/2000/svg"
   xmlns="http://www.w3.org/2000/svg"
   height="24"
   width="24"
   xml:space="preserve"
   viewBox="0 0 24 24"
   y="0px"
   x="0px"
   id="Layer_1"
   version="1.1"><metadata
   id="metadata15"><rdf:RDF><cc:Work
       rdf:about=""><dc:format>image/svg+xml</dc:format><dc:type
         rdf:resource="http://purl.org/dc/dcmitype/StillImage" /><dc:title></dc:title></cc:Work></rdf:RDF></metadata><defs
   id="defs13" />
<style
   id="style2"
   type="text/css">
	.st0{fill:none;}
</style>
<g
   transform="matrix(0.43866172,0,0,0.43866172,0.28773224,0.24386557)"
   id="g8">
	<rect
   style="fill:none"
   id="rect4"
   height="53.400002"
   width="53.799999"
   class="st0"
   y="0.1"
   x="-0.2" />
	<path
   id="path6"
   d="m 47.5,40.9 h 3.3 c 0.1,0.5 0,1.1 -0.1,1.9 -0.1,0.7 -0.3,1.6 -0.7,2.7 -0.4,1.1 -0.9,2 -1.6,2.8 -0.7,0.8 -1.7,1.6 -3,2.2 -1.3,0.6 -2.8,0.9 -4.5,0.9 -1.3,0 -2.5,-0.2 -3.6,-0.5 -1.1,-0.4 -2.1,-0.9 -2.9,-1.6 -0.9,-0.7 -1.6,-1.4 -2.2,-2.2 -0.6,-0.8 -1.2,-1.7 -1.8,-2.7 -1.8,0.5 -3.7,0.8 -5.7,0.8 -2.8,0 -5.5,-0.5 -8.2,-1.6 C 13.8,42.5 11.5,41 9.4,39.2 7.3,37.3 5.7,35 4.4,32.3 3.1,29.5 2.5,26.6 2.5,23.4 c 0,-3.2 0.6,-6.1 1.9,-8.9 1.3,-2.8 2.9,-5.1 5,-7 2.1,-1.9 4.4,-3.4 7.1,-4.4 2.7,-1.1 5.4,-1.6 8.1,-1.6 2.3,0 4.5,0.3 6.7,1 2.2,0.7 4.2,1.7 6.1,3 1.9,1.3 3.5,2.8 4.9,4.6 1.4,1.8 2.5,3.8 3.3,6.1 0.8,2.3 1.2,4.7 1.2,7.3 0,3.5 -0.7,6.8 -2.2,9.7 -1.5,2.9 -3.5,5.4 -6.1,7.4 0.9,1.3 1.7,2.3 2.6,3 0.9,0.7 1.8,1 2.9,1 1.1,0 2,-0.3 2.6,-1 0.5,-1.1 0.9,-1.9 0.9,-2.7 z M 36.7,23.2 c 0,-5.9 -1,-10.3 -2.9,-13.2 -1.9,-2.9 -5,-4.4 -9.2,-4.4 -4.1,0 -7.2,1.5 -9.1,4.4 -1.9,2.9 -2.9,7.3 -2.9,13.2 0,5.9 1,10.3 2.9,13.2 1.9,2.9 5,4.3 9.1,4.3 1.4,0 2.6,-0.2 3.7,-0.5 -0.4,-0.8 -0.8,-1.5 -1.1,-2 C 26.9,37.7 26.5,37 26,36.4 25.5,35.7 25,35.2 24.5,34.8 24,34.4 23.4,34.1 22.7,33.8 22,33.5 21.3,33.4 20.5,33.4 c -0.9,0 -1.6,0.1 -2.2,0.4 l -1.4,-2.7 c 2,-1.7 4.5,-2.5 7.7,-2.5 2.5,0 4.5,0.5 6,1.5 1.6,1 3,2.4 4.2,4.3 1.2,-2.7 1.9,-6.5 1.9,-11.2 z" />
</g>
</svg>