<svg class="{{ with .class }}{{ . }} {{ end }}icon icon-research_gate" width="24" height="24" viewBox="0 0 260 260"><g transform="translate(0.000000,250.000000) scale(0.100000,-0.100000)" fill="#ffffff" stroke="none">
<path d="M335 2486 c-156 -49 -286 -188 -320 -339 -14 -63 -15 -176 -13 -927 l3 -855 23 -58 c34 -83 107 -174 180 -224 121 -82 61 -77 1011 -81 550 -2 863 1 899 8 167 31 313 160 363 321 18 58 19 105 19 917 0 694 -3 867 -14 908 -40 151 -156 273 -305 324 -59 20 -81 20 -933 19 -676 0 -882 -3 -913 -13z m1624 -213 c67 -27 131 -92 131 -132 0 -11 -62 -41 -84 -41 -6 0 -20 14 -29 30 -26 44 -90 73 -145 67 -82 -9 -128 -61 -144 -162 -14 -91 -4 -284 17 -324 46 -89 170 -113 244 -46 33 30 41 45 50 97 6 33 8 65 5 69 -3 5 -36 9 -75 9 l-69 0 0 50 0 51 128 -3 127 -3 -1 -105 c-1 -127 -24 -191 -87 -246 -99 -84 -272 -83 -366 2 -67 60 -84 116 -89 290 -5 177 6 244 51 311 66 98 214 136 336 86z m-819 -458 c78 -24 133 -59 184 -116 55 -61 77 -125 77 -221 0 -162 -89 -293 -250 -366 l-62 -28 66 -103 c187 -295 347 -464 455 -478 36 -5 40 -8 40 -35 0 -36 -28 -48 -109 -48 -130 0 -233 55 -329 174 -59 73 -167 235 -247 369 -50 85 -61 97 -85 97 -15 0 -55 3 -89 6 l-61 7 0 -179 c1 -245 11 -322 44 -351 14 -12 43 -25 64 -28 20 -3 52 -8 70 -11 28 -4 32 -9 32 -34 l0 -30 -280 0 -280 0 0 29 c0 27 4 30 51 40 68 15 106 39 119 74 6 19 10 221 10 554 0 581 1 576 -63 606 -19 9 -43 17 -54 17 -45 0 -63 12 -63 41 l0 29 183 3 c335 7 517 1 577 -18z"/>
<path d="M743 1734 c-10 -4 -13 -71 -13 -285 l0 -279 118 0 c182 0 270 36 329 137 26 44 28 56 28 153 0 118 -9 144 -71 204 -54 52 -109 68 -254 72 -69 2 -131 1 -137 -2z"/>
</g></svg>