<svg class="{{ with .class }}{{ . }} {{ end }}icon icon-research_gate" width="24" height="24" viewBox="0 0 405 405"><path d="M185.400 16.297 C 184.960 16.391,184.375 16.757,184.100 17.110 C 183.825 17.464,183.600 17.584,183.600 17.376 C 183.600 16.926,178.014 16.883,177.307 17.328 C 177.036 17.499,175.776 17.658,174.507 17.682 C 173.238 17.705,171.976 17.898,171.703 18.109 C 171.429 18.321,170.349 18.531,169.303 18.577 C 168.256 18.623,167.433 18.837,167.474 19.053 C 167.515 19.269,166.615 19.461,165.474 19.479 C 164.333 19.498,162.860 19.633,162.200 19.781 C 161.540 19.928,160.588 20.133,160.084 20.236 C 159.580 20.339,159.254 20.564,159.360 20.735 C 159.466 20.907,158.753 20.987,157.776 20.913 C 156.799 20.840,156.000 20.942,156.000 21.140 C 156.000 21.338,155.544 21.500,154.987 21.500 C 154.429 21.500,153.619 21.820,153.187 22.212 C 152.754 22.604,152.400 22.727,152.400 22.487 C 152.400 22.246,152.052 22.076,151.628 22.108 C 151.203 22.140,150.944 22.309,151.051 22.483 C 151.266 22.831,150.710 22.931,149.246 22.809 C 148.721 22.765,148.156 22.947,147.991 23.214 C 147.826 23.481,147.221 23.700,146.645 23.700 C 146.070 23.700,145.600 23.821,145.600 23.970 C 145.600 24.341,143.137 25.200,142.072 25.200 C 141.572 25.200,141.200 25.451,141.200 25.787 C 141.200 26.152,140.966 26.285,140.585 26.139 C 140.247 26.009,139.575 26.240,139.092 26.651 C 138.433 27.213,138.343 27.233,138.731 26.730 C 139.204 26.117,139.129 26.097,137.844 26.491 C 137.072 26.728,136.453 27.029,136.468 27.161 C 136.548 27.867,136.346 28.053,135.900 27.683 C 135.131 27.045,134.775 27.084,134.176 27.873 C 133.873 28.273,133.617 28.420,133.607 28.200 C 133.596 27.980,133.448 28.020,133.277 28.290 C 133.105 28.559,132.586 28.838,132.122 28.909 C 131.658 28.979,131.019 29.252,130.702 29.515 C 130.386 29.778,129.994 29.861,129.833 29.700 C 129.672 29.539,129.378 29.696,129.180 30.049 C 128.965 30.434,128.414 30.648,127.808 30.581 C 127.252 30.520,126.898 30.634,127.022 30.835 C 127.146 31.036,126.967 31.200,126.624 31.200 C 126.281 31.200,126.000 31.341,126.000 31.513 C 126.000 31.685,125.516 31.866,124.924 31.915 C 124.332 31.964,123.455 32.372,122.976 32.823 C 122.496 33.273,121.720 33.671,121.252 33.706 C 120.783 33.741,120.400 33.931,120.400 34.128 C 120.400 34.325,120.130 34.382,119.800 34.255 C 119.470 34.129,119.200 34.199,119.200 34.413 C 119.200 34.626,118.840 34.800,118.400 34.800 C 117.960 34.800,117.600 34.968,117.600 35.174 C 117.600 35.380,116.970 35.776,116.200 36.054 C 115.430 36.333,114.800 36.735,114.800 36.947 C 114.800 37.159,114.683 37.216,114.540 37.073 C 114.396 36.930,114.023 37.125,113.710 37.506 C 113.358 37.935,113.253 37.971,113.435 37.600 C 113.597 37.270,113.263 37.424,112.694 37.942 C 112.083 38.498,111.458 38.759,111.168 38.580 C 110.864 38.393,110.779 38.442,110.944 38.709 C 111.091 38.948,110.849 39.257,110.406 39.398 C 109.963 39.539,109.597 39.867,109.594 40.127 C 109.590 40.407,109.429 40.355,109.200 40.000 C 108.918 39.564,108.811 39.543,108.806 39.924 C 108.803 40.212,108.619 40.335,108.397 40.198 C 107.931 39.910,106.714 40.981,107.086 41.352 C 107.308 41.574,106.266 41.768,105.500 41.647 C 105.335 41.621,105.200 41.780,105.200 42.000 C 105.200 42.220,104.921 42.400,104.581 42.400 C 104.240 42.400,103.545 42.850,103.035 43.400 C 102.525 43.950,101.634 44.439,101.054 44.487 C 100.474 44.535,100.000 44.816,100.000 45.111 C 100.000 45.406,99.820 45.536,99.600 45.400 C 99.380 45.264,99.200 45.412,99.200 45.730 C 99.200 46.248,97.868 46.954,97.100 46.843 C 96.935 46.819,96.845 47.025,96.900 47.300 C 96.955 47.575,96.776 47.755,96.503 47.701 C 96.000 47.601,95.031 48.268,93.312 49.900 C 92.790 50.395,92.192 50.800,91.982 50.800 C 91.772 50.800,91.600 50.995,91.600 51.233 C 91.600 51.472,91.389 51.596,91.130 51.510 C 90.872 51.424,90.132 51.904,89.487 52.577 C 88.842 53.250,88.045 53.743,87.717 53.673 C 87.376 53.601,87.233 53.730,87.383 53.973 C 87.529 54.208,87.410 54.400,87.120 54.400 C 86.830 54.400,86.368 54.760,86.093 55.200 C 85.818 55.640,85.366 56.000,85.088 56.000 C 84.809 56.000,83.974 56.704,83.231 57.564 C 82.364 58.568,81.661 59.045,81.270 58.895 C 80.832 58.727,80.731 58.843,80.910 59.310 C 81.081 59.755,80.987 59.893,80.610 59.749 C 80.308 59.633,79.868 59.900,79.631 60.342 C 79.394 60.784,78.850 61.257,78.421 61.393 C 77.946 61.544,77.728 61.869,77.865 62.225 C 78.019 62.626,77.898 62.736,77.481 62.576 C 77.090 62.426,76.778 62.639,76.609 63.171 C 76.370 63.923,75.931 64.179,75.100 64.047 C 74.935 64.021,74.800 64.180,74.800 64.400 C 74.800 64.620,74.611 64.800,74.381 64.800 C 73.822 64.800,72.029 66.862,72.013 67.524 C 72.006 67.812,71.847 67.953,71.661 67.838 C 71.291 67.609,68.942 70.364,69.092 70.852 C 69.142 71.016,68.827 71.082,68.392 70.998 C 67.805 70.885,67.600 71.064,67.600 71.690 C 67.600 72.154,67.482 72.415,67.337 72.270 C 66.944 71.878,65.968 72.824,66.266 73.307 C 66.408 73.536,66.361 73.630,66.162 73.515 C 65.963 73.400,65.389 73.732,64.886 74.253 C 64.383 74.774,64.075 75.200,64.202 75.200 C 64.328 75.200,64.199 75.453,63.916 75.762 C 63.632 76.071,63.228 76.296,63.018 76.262 C 62.808 76.228,62.628 76.432,62.618 76.715 C 62.608 76.998,62.402 77.358,62.160 77.515 C 61.918 77.672,61.506 78.205,61.246 78.700 C 60.985 79.195,60.508 79.600,60.186 79.600 C 59.864 79.600,59.600 79.881,59.600 80.224 C 59.600 80.567,59.456 80.758,59.280 80.649 C 59.104 80.541,58.731 80.819,58.451 81.268 C 58.032 81.938,58.036 82.031,58.470 81.789 C 58.762 81.627,58.425 82.038,57.723 82.703 C 57.021 83.369,56.556 84.022,56.690 84.156 C 56.824 84.290,56.723 84.400,56.467 84.400 C 55.800 84.400,54.400 85.890,54.400 86.600 C 54.400 86.930,54.220 87.200,54.000 87.200 C 53.780 87.200,53.600 87.442,53.600 87.738 C 53.600 88.034,53.244 88.598,52.809 88.991 C 52.375 89.385,52.107 89.850,52.215 90.025 C 52.323 90.199,52.065 90.452,51.642 90.587 C 50.668 90.896,49.477 92.677,49.845 93.273 C 49.998 93.521,49.961 93.625,49.762 93.504 C 49.563 93.383,49.168 93.535,48.884 93.842 C 48.601 94.149,48.511 94.405,48.684 94.412 C 48.858 94.419,48.681 94.610,48.292 94.837 C 47.902 95.064,47.688 95.418,47.815 95.625 C 47.943 95.831,47.895 96.000,47.710 96.000 C 47.189 96.000,45.984 98.247,46.311 98.608 C 46.470 98.784,46.245 98.799,45.812 98.643 C 45.379 98.486,45.154 98.488,45.313 98.646 C 45.472 98.805,45.303 99.265,44.939 99.668 C 44.574 100.070,44.434 100.400,44.627 100.400 C 44.820 100.400,44.578 100.680,44.089 101.023 C 43.600 101.365,43.200 102.021,43.200 102.479 C 43.200 102.938,42.660 103.829,42.000 104.460 C 41.340 105.091,40.800 105.875,40.800 106.203 C 40.800 106.532,40.601 106.800,40.357 106.800 C 40.114 106.800,40.021 107.077,40.150 107.415 C 40.285 107.765,40.131 108.128,39.796 108.257 C 39.471 108.382,39.304 108.645,39.426 108.842 C 39.548 109.039,39.457 109.200,39.224 109.200 C 38.991 109.200,38.800 109.470,38.800 109.800 C 38.800 110.130,38.637 110.400,38.437 110.400 C 38.238 110.400,38.176 110.788,38.300 111.263 C 38.455 111.854,38.380 112.035,38.063 111.839 C 37.806 111.680,37.579 111.786,37.554 112.076 C 37.528 112.364,37.483 112.870,37.454 113.200 C 37.424 113.530,37.175 113.755,36.900 113.700 C 36.625 113.645,36.400 113.971,36.400 114.424 C 36.400 114.877,36.233 115.144,36.029 115.018 C 35.825 114.892,35.533 115.196,35.381 115.694 C 35.230 116.192,34.828 116.916,34.488 117.302 C 34.149 117.689,33.980 118.114,34.113 118.246 C 34.246 118.379,33.925 119.168,33.400 120.000 C 32.875 120.832,32.555 121.622,32.689 121.756 C 32.824 121.890,32.693 122.000,32.400 122.000 C 32.107 122.000,31.976 122.110,32.111 122.244 C 32.245 122.378,32.012 123.127,31.593 123.908 C 31.175 124.689,30.943 125.507,31.078 125.726 C 31.213 125.945,31.136 126.008,30.907 125.866 C 30.678 125.725,30.362 126.012,30.204 126.504 C 30.047 126.997,29.833 127.670,29.730 128.000 C 29.627 128.330,29.544 128.913,29.546 129.295 C 29.548 129.677,29.228 130.217,28.835 130.495 C 28.441 130.773,28.167 131.315,28.224 131.700 C 28.282 132.085,28.165 132.400,27.965 132.400 C 27.764 132.400,27.600 132.750,27.600 133.177 C 27.600 133.605,27.220 134.598,26.756 135.386 C 26.291 136.173,26.004 137.173,26.118 137.608 C 26.257 138.141,26.126 138.400,25.717 138.400 C 25.267 138.400,25.156 138.716,25.288 139.617 C 25.415 140.482,25.321 140.779,24.964 140.642 C 24.624 140.511,24.516 140.750,24.631 141.382 C 24.737 141.968,24.574 142.401,24.191 142.548 C 23.786 142.703,23.644 143.129,23.768 143.812 C 23.881 144.437,23.750 144.921,23.435 145.042 C 23.149 145.152,22.963 145.682,23.022 146.221 C 23.091 146.846,22.926 147.200,22.567 147.200 C 22.215 147.200,22.055 147.527,22.139 148.077 C 22.212 148.559,22.041 149.401,21.757 149.948 C 21.473 150.495,21.338 151.100,21.457 151.291 C 21.575 151.483,21.352 152.306,20.960 153.120 C 20.568 153.934,20.237 155.274,20.224 156.099 C 20.210 156.980,20.003 157.598,19.722 157.599 C 19.415 157.600,19.276 158.181,19.335 159.223 C 19.387 160.153,19.208 161.027,18.917 161.269 C 18.638 161.501,18.492 161.825,18.593 161.988 C 18.694 162.152,18.581 162.897,18.342 163.643 C 18.103 164.389,17.866 165.872,17.815 166.938 C 17.765 168.004,17.531 168.995,17.296 169.141 C 17.061 169.286,16.919 170.124,16.980 171.002 C 17.041 171.881,16.864 172.929,16.586 173.331 C 16.250 173.817,16.153 174.854,16.296 176.431 C 16.454 178.170,16.379 178.800,16.013 178.800 C 15.739 178.800,15.616 179.064,15.740 179.387 C 15.864 179.710,15.793 180.081,15.583 180.211 C 15.105 180.506,15.077 182.677,15.546 182.967 C 15.958 183.221,15.646 185.200,15.194 185.200 C 15.021 185.200,14.816 186.010,14.737 187.000 C 14.659 187.990,14.737 188.800,14.911 188.800 C 15.086 188.800,15.048 189.136,14.828 189.547 C 14.608 189.958,14.517 190.384,14.626 190.493 C 14.820 190.686,14.982 208.206,14.798 209.000 C 14.747 209.220,14.748 209.580,14.801 209.800 C 14.854 210.020,14.859 211.872,14.812 213.916 C 14.764 216.065,14.906 217.846,15.151 218.140 C 15.383 218.420,15.566 219.808,15.558 221.225 C 15.539 224.397,15.640 225.200,16.060 225.200 C 16.239 225.200,16.317 226.195,16.233 227.411 C 16.141 228.737,16.263 229.818,16.540 230.111 C 16.793 230.380,17.000 231.230,17.000 232.000 C 17.000 232.770,17.180 233.660,17.400 233.977 C 17.712 234.427,17.668 234.478,17.200 234.208 C 16.723 233.933,16.733 234.019,17.252 234.631 C 17.645 235.094,17.864 235.957,17.802 236.800 C 17.746 237.570,17.892 238.560,18.128 239.000 C 18.363 239.440,18.504 240.319,18.442 240.954 C 18.379 241.589,18.515 242.224,18.744 242.365 C 19.085 242.576,19.375 243.895,19.571 246.124 C 19.587 246.302,19.742 246.359,19.916 246.252 C 20.090 246.144,20.160 246.682,20.071 247.446 C 19.958 248.408,20.138 249.098,20.654 249.687 C 21.064 250.155,21.192 250.416,20.937 250.268 C 20.629 250.089,20.544 250.265,20.683 250.795 C 20.797 251.233,21.033 251.503,21.206 251.396 C 21.379 251.289,21.502 251.852,21.480 252.647 C 21.452 253.638,21.677 254.267,22.196 254.646 C 22.612 254.951,22.750 255.200,22.501 255.200 C 22.253 255.200,22.077 255.560,22.110 256.000 C 22.143 256.440,22.279 256.800,22.411 256.800 C 22.918 256.800,23.937 259.556,23.727 260.358 C 23.574 260.942,23.694 261.200,24.116 261.200 C 24.528 261.200,24.657 261.459,24.516 262.000 C 24.399 262.447,24.504 262.800,24.753 262.800 C 24.999 262.800,25.179 262.935,25.153 263.100 C 24.964 264.295,25.282 265.600,25.763 265.600 C 26.117 265.600,26.252 265.879,26.128 266.353 C 26.020 266.768,26.251 267.713,26.643 268.453 C 27.034 269.194,27.311 270.174,27.258 270.630 C 27.196 271.162,27.492 271.620,28.081 271.903 C 28.586 272.147,28.768 272.358,28.484 272.373 C 28.146 272.391,28.249 272.701,28.784 273.275 C 29.693 274.251,29.869 274.983,29.100 274.594 C 28.825 274.455,28.933 274.612,29.340 274.944 C 29.747 275.275,29.961 275.740,29.815 275.976 C 29.668 276.213,29.832 276.689,30.178 277.035 C 30.524 277.381,30.705 277.830,30.580 278.032 C 30.455 278.235,30.543 278.400,30.776 278.400 C 31.009 278.400,31.200 278.771,31.200 279.224 C 31.200 279.677,31.380 279.936,31.600 279.800 C 31.831 279.657,32.000 280.037,32.000 280.701 C 32.000 281.332,32.358 282.233,32.796 282.703 C 33.239 283.179,33.486 283.833,33.353 284.179 C 33.222 284.520,33.314 284.800,33.557 284.800 C 33.801 284.800,34.000 285.008,34.000 285.262 C 34.000 285.516,34.495 286.370,35.100 287.158 C 36.445 288.912,37.200 290.309,37.200 291.046 C 37.200 291.351,37.391 291.600,37.624 291.600 C 37.857 291.600,37.945 291.765,37.820 291.968 C 37.695 292.170,37.856 292.599,38.177 292.920 C 38.499 293.242,38.650 293.616,38.514 293.752 C 38.378 293.889,38.487 294.000,38.757 294.000 C 39.027 294.000,39.136 294.180,39.000 294.400 C 38.864 294.620,39.063 294.800,39.443 294.800 C 39.823 294.800,40.020 294.914,39.881 295.053 C 39.742 295.191,39.892 295.681,40.214 296.142 C 40.536 296.602,40.800 297.302,40.800 297.698 C 40.800 298.093,41.235 298.616,41.768 298.858 C 42.400 299.146,42.685 299.559,42.590 300.049 C 42.511 300.462,42.616 300.800,42.823 300.800 C 43.030 300.800,43.200 301.036,43.200 301.325 C 43.200 301.613,43.549 302.224,43.976 302.682 C 44.403 303.140,44.647 303.620,44.519 303.748 C 44.390 303.876,44.580 304.094,44.940 304.232 C 45.301 304.371,45.496 304.645,45.374 304.842 C 45.252 305.039,45.453 305.200,45.819 305.200 C 46.231 305.200,46.402 305.417,46.267 305.770 C 46.147 306.083,46.503 306.794,47.060 307.351 C 47.616 307.907,47.956 308.548,47.815 308.776 C 47.665 309.019,47.801 309.098,48.143 308.966 C 48.506 308.827,48.827 309.056,48.991 309.571 C 49.136 310.027,49.432 310.400,49.651 310.400 C 49.869 310.400,49.932 310.587,49.790 310.816 C 49.649 311.044,50.198 311.840,51.010 312.584 C 51.938 313.434,52.373 314.120,52.182 314.430 C 52.006 314.714,52.041 314.822,52.265 314.684 C 52.478 314.552,52.968 314.977,53.353 315.629 C 53.743 316.288,54.247 316.695,54.489 316.545 C 54.754 316.381,54.808 316.463,54.627 316.756 C 54.464 317.019,54.549 317.497,54.815 317.818 C 55.080 318.138,55.141 318.401,54.949 318.401 C 54.757 318.402,55.204 318.771,55.943 319.222 C 56.681 319.672,57.374 320.379,57.482 320.792 C 57.599 321.239,57.908 321.457,58.244 321.328 C 58.620 321.183,58.733 321.308,58.583 321.701 C 58.334 322.349,62.184 326.464,62.647 326.045 C 62.796 325.910,62.814 326.223,62.686 326.740 C 62.559 327.256,62.543 327.590,62.651 327.482 C 62.905 327.229,64.800 329.113,64.800 329.618 C 64.800 329.828,64.969 330.000,65.175 330.000 C 65.382 330.000,66.147 330.564,66.875 331.253 C 67.604 331.942,67.947 332.364,67.638 332.191 C 67.263 331.981,67.171 332.030,67.362 332.338 C 67.519 332.592,67.937 332.800,68.290 332.800 C 68.644 332.800,68.822 332.911,68.686 333.048 C 68.381 333.352,69.155 334.152,70.100 334.510 C 70.485 334.656,70.800 335.051,70.800 335.387 C 70.800 335.724,71.004 336.000,71.254 336.000 C 71.780 336.000,73.820 338.066,73.698 338.476 C 73.625 338.722,74.540 339.150,75.280 339.215 C 75.717 339.254,78.400 342.036,78.400 342.450 C 78.400 342.653,78.850 342.991,79.400 343.200 C 79.950 343.409,80.400 343.761,80.400 343.982 C 80.400 344.204,80.858 344.500,81.419 344.640 C 81.979 344.781,82.346 344.987,82.236 345.098 C 81.866 345.467,84.865 348.061,85.416 347.849 C 85.767 347.715,85.880 347.846,85.737 348.220 C 85.597 348.584,85.763 348.800,86.181 348.800 C 86.547 348.800,86.736 348.980,86.600 349.200 C 86.378 349.560,86.903 349.773,87.700 349.647 C 87.865 349.621,88.003 349.825,88.006 350.100 C 88.010 350.433,88.142 350.400,88.400 350.000 C 88.636 349.634,88.790 349.587,88.794 349.879 C 88.803 350.604,90.605 352.400,91.323 352.400 C 91.670 352.400,92.206 352.759,92.513 353.197 C 92.820 353.636,93.219 353.861,93.400 353.697 C 93.580 353.534,93.614 353.715,93.476 354.100 C 93.296 354.602,93.431 354.800,93.951 354.800 C 94.350 354.800,95.008 355.166,95.413 355.614 C 95.818 356.062,96.383 356.339,96.669 356.229 C 96.954 356.119,97.384 356.397,97.625 356.846 C 97.873 357.311,98.306 357.568,98.631 357.444 C 98.944 357.323,99.200 357.425,99.200 357.668 C 99.200 358.280,100.447 359.172,101.324 359.187 C 101.767 359.195,101.937 359.379,101.762 359.662 C 101.580 359.955,101.653 360.015,101.959 359.825 C 102.242 359.650,102.754 359.886,103.196 360.395 C 103.610 360.872,104.212 361.302,104.534 361.349 C 104.856 361.396,105.407 361.674,105.760 361.967 C 106.112 362.259,106.400 362.346,106.400 362.160 C 106.400 361.974,106.670 362.208,107.000 362.679 C 107.331 363.151,108.153 363.658,108.828 363.806 C 109.502 363.954,110.151 364.328,110.270 364.638 C 110.388 364.947,110.927 365.200,111.466 365.200 C 112.006 365.200,112.352 365.354,112.236 365.542 C 112.119 365.730,112.514 365.806,113.112 365.711 C 113.939 365.579,114.059 365.635,113.614 365.946 C 113.131 366.281,113.213 366.425,114.075 366.752 C 114.651 366.971,115.240 367.342,115.385 367.575 C 115.529 367.809,115.997 368.000,116.424 368.000 C 116.851 368.000,117.200 368.180,117.200 368.400 C 117.200 368.620,117.549 368.800,117.976 368.800 C 118.403 368.800,118.872 368.992,119.017 369.227 C 119.162 369.462,119.518 369.564,119.807 369.453 C 120.097 369.341,120.437 369.521,120.564 369.851 C 120.691 370.181,120.961 370.348,121.165 370.222 C 121.369 370.096,121.779 370.236,122.076 370.533 C 122.373 370.831,122.953 371.024,123.364 370.964 C 123.775 370.904,124.350 371.067,124.642 371.327 C 125.963 372.505,126.330 372.737,126.538 372.528 C 126.661 372.405,127.053 372.596,127.410 372.952 C 128.173 373.716,128.976 373.819,128.555 373.100 C 128.394 372.825,128.608 372.892,129.031 373.248 C 129.454 373.604,130.025 373.814,130.300 373.714 C 130.575 373.615,130.800 373.818,130.800 374.167 C 130.800 374.606,131.174 374.800,132.024 374.800 C 132.697 374.800,133.143 374.968,133.016 375.174 C 132.889 375.380,133.612 375.673,134.624 375.825 C 135.636 375.976,136.548 376.321,136.652 376.591 C 136.759 376.871,137.258 377.001,137.815 376.895 C 138.446 376.774,138.872 376.921,139.021 377.310 C 139.150 377.646,139.562 377.830,139.954 377.728 C 140.340 377.627,140.889 377.825,141.174 378.168 C 141.521 378.586,142.026 378.708,142.705 378.538 C 143.414 378.360,143.634 378.421,143.436 378.742 C 143.280 378.994,143.298 379.214,143.476 379.231 C 143.654 379.247,144.160 379.354,144.600 379.466 C 145.040 379.579,145.820 379.715,146.334 379.768 C 146.848 379.821,147.388 380.051,147.534 380.278 C 147.680 380.506,148.475 380.672,149.300 380.646 C 150.172 380.619,150.800 380.788,150.800 381.050 C 150.800 381.298,151.270 381.500,151.845 381.500 C 152.421 381.500,153.006 381.679,153.145 381.898 C 153.285 382.117,153.894 382.242,154.499 382.176 C 155.103 382.109,155.840 382.297,156.136 382.593 C 156.456 382.913,157.278 383.076,158.161 382.994 C 159.141 382.903,159.717 383.039,159.853 383.394 C 159.990 383.750,160.523 383.875,161.430 383.762 C 162.279 383.657,162.800 383.763,162.800 384.043 C 162.800 384.306,163.210 384.415,163.788 384.304 C 164.390 384.189,164.679 384.273,164.527 384.519 C 164.365 384.781,164.870 384.827,165.968 384.651 C 167.083 384.473,167.573 384.521,167.406 384.791 C 167.245 385.051,167.954 385.200,169.353 385.200 C 170.563 385.200,171.662 385.377,171.796 385.593 C 171.930 385.810,173.155 385.942,174.519 385.887 C 175.970 385.828,177.199 385.976,177.479 386.244 C 177.742 386.495,179.235 386.708,180.797 386.716 C 182.358 386.724,183.852 386.910,184.118 387.128 C 184.830 387.714,217.158 387.556,216.932 386.968 C 216.813 386.658,217.756 386.565,220.058 386.660 C 222.196 386.748,223.452 386.639,223.632 386.349 C 223.784 386.103,225.138 385.852,226.641 385.791 C 228.144 385.730,229.424 385.527,229.487 385.339 C 229.550 385.151,230.501 385.038,231.600 385.087 C 232.700 385.136,233.600 385.010,233.600 384.807 C 233.600 384.604,234.275 384.504,235.100 384.584 C 235.925 384.664,236.960 384.504,237.400 384.227 C 237.840 383.951,238.650 383.767,239.200 383.818 C 239.813 383.875,240.484 383.580,240.935 383.056 C 241.339 382.585,241.529 382.470,241.358 382.800 C 241.105 383.287,241.157 383.310,241.637 382.923 C 242.019 382.614,242.434 382.577,242.813 382.817 C 243.681 383.365,244.400 383.278,244.400 382.625 C 244.400 382.189,244.746 382.106,245.840 382.284 C 246.781 382.437,247.387 382.345,247.588 382.020 C 247.757 381.746,248.369 381.494,248.947 381.461 C 249.526 381.427,250.000 381.265,250.000 381.100 C 250.000 380.935,250.553 380.800,251.229 380.800 C 251.904 380.800,252.729 380.528,253.061 380.196 C 253.393 379.864,253.824 379.691,254.019 379.811 C 254.213 379.932,255.109 379.655,256.009 379.195 C 256.949 378.716,257.977 378.466,258.425 378.608 C 258.916 378.764,259.286 378.641,259.426 378.276 C 259.556 377.937,260.461 377.589,261.611 377.436 C 262.790 377.280,263.718 376.917,263.936 376.528 C 264.164 376.122,264.606 375.960,265.122 376.095 C 265.626 376.227,266.270 376.008,266.783 375.530 C 267.244 375.100,268.022 374.724,268.511 374.694 C 269.000 374.663,269.521 374.462,269.668 374.247 C 269.815 374.032,270.175 373.808,270.468 373.749 C 270.761 373.690,271.540 373.532,272.200 373.397 C 272.860 373.263,273.460 372.982,273.534 372.774 C 273.608 372.566,273.853 372.509,274.079 372.649 C 274.305 372.788,274.621 372.690,274.781 372.431 C 274.941 372.172,275.441 371.932,275.892 371.898 C 276.343 371.864,276.632 371.627,276.533 371.371 C 276.420 371.076,276.730 370.946,277.379 371.018 C 277.943 371.079,278.314 370.985,278.204 370.807 C 277.967 370.422,279.132 369.911,279.594 370.196 C 279.771 370.306,280.024 370.114,280.156 369.770 C 280.309 369.371,280.669 369.232,281.151 369.384 C 281.645 369.541,281.994 369.393,282.162 368.955 C 282.303 368.587,282.529 368.396,282.664 368.531 C 282.799 368.666,283.408 368.422,284.017 367.988 C 284.625 367.555,285.411 367.200,285.762 367.200 C 286.113 367.200,286.400 367.020,286.400 366.800 C 286.400 366.580,286.625 366.445,286.900 366.500 C 287.175 366.555,287.347 366.352,287.283 366.049 C 287.204 365.675,287.424 365.565,287.969 365.708 C 288.450 365.834,288.738 365.734,288.686 365.459 C 288.637 365.197,288.984 365.053,289.497 365.125 C 290.187 365.220,290.336 365.098,290.143 364.595 C 289.978 364.166,290.083 363.973,290.446 364.035 C 291.452 364.208,293.200 363.523,293.200 362.957 C 293.200 362.650,293.547 362.400,293.971 362.400 C 294.396 362.400,294.981 362.162,295.271 361.871 C 295.562 361.581,295.933 361.306,296.096 361.260 C 297.182 360.958,297.600 360.638,297.600 360.111 C 297.600 359.703,297.861 359.575,298.401 359.716 C 298.841 359.831,299.100 359.762,298.977 359.563 C 298.854 359.363,298.943 359.178,299.176 359.150 C 299.409 359.123,299.774 359.078,299.987 359.050 C 300.200 359.023,300.742 358.685,301.192 358.300 C 301.641 357.915,302.147 357.600,302.316 357.600 C 302.484 357.600,302.930 357.240,303.307 356.800 C 303.684 356.360,304.311 356.000,304.700 356.000 C 305.089 356.000,305.632 355.640,305.907 355.200 C 306.182 354.760,306.705 354.400,307.070 354.400 C 307.435 354.400,307.624 354.291,307.491 354.157 C 307.088 353.755,308.154 352.884,308.764 353.118 C 309.126 353.257,309.226 353.166,309.042 352.868 C 308.863 352.578,309.028 352.394,309.476 352.385 C 309.874 352.377,310.695 351.718,311.300 350.921 C 311.905 350.124,312.405 349.725,312.412 350.036 C 312.421 350.434,312.546 350.391,312.837 349.892 C 313.064 349.502,313.419 349.288,313.627 349.417 C 313.835 349.546,314.113 349.370,314.245 349.028 C 314.376 348.685,314.645 348.504,314.842 348.626 C 315.039 348.748,315.200 348.556,315.200 348.200 C 315.200 347.844,315.390 347.670,315.621 347.813 C 316.022 348.061,317.600 346.603,317.600 345.985 C 317.600 345.825,317.978 345.594,318.440 345.474 C 318.993 345.329,319.178 345.074,318.982 344.727 C 318.746 344.312,318.793 344.302,319.203 344.682 C 319.785 345.221,321.580 343.864,321.593 342.876 C 321.597 342.588,321.780 342.464,322.000 342.600 C 322.220 342.736,322.400 342.577,322.400 342.246 C 322.400 341.916,322.940 341.326,323.600 340.936 C 324.260 340.546,324.800 340.107,324.800 339.960 C 324.800 339.814,325.178 339.594,325.640 339.474 C 326.116 339.349,326.363 339.064,326.211 338.817 C 326.062 338.577,326.101 338.430,326.297 338.490 C 326.733 338.625,330.400 334.865,330.400 334.283 C 330.400 334.054,330.510 333.977,330.644 334.111 C 330.779 334.246,331.327 333.835,331.862 333.199 C 332.397 332.563,333.187 331.931,333.618 331.794 C 334.048 331.658,334.400 331.292,334.400 330.982 C 334.400 330.672,334.892 330.099,335.493 329.709 C 337.230 328.583,338.024 327.680,337.475 327.457 C 337.214 327.350,337.315 327.249,337.700 327.232 C 338.085 327.214,338.355 327.042,338.300 326.848 C 338.245 326.655,338.656 326.070,339.213 325.548 C 339.770 325.027,340.310 324.420,340.413 324.200 C 340.516 323.980,340.735 323.845,340.900 323.900 C 341.065 323.955,341.200 323.719,341.200 323.376 C 341.200 323.033,341.378 322.863,341.595 322.997 C 341.822 323.137,341.889 322.977,341.753 322.621 C 341.620 322.276,341.724 322.000,341.986 322.000 C 342.575 322.000,343.600 321.002,343.600 320.429 C 343.600 320.193,343.799 320.000,344.043 320.000 C 344.286 320.000,344.382 319.730,344.255 319.400 C 344.052 318.871,344.430 318.626,345.271 318.743 C 345.420 318.764,345.780 318.243,346.071 317.586 C 346.361 316.928,346.915 316.291,347.300 316.168 C 347.685 316.046,348.000 315.688,348.000 315.373 C 348.000 315.058,348.174 314.800,348.387 314.800 C 348.601 314.800,348.671 314.530,348.545 314.200 C 348.393 313.806,348.558 313.600,349.024 313.600 C 349.414 313.600,349.617 313.483,349.474 313.341 C 349.331 313.198,349.593 312.753,350.055 312.353 C 350.539 311.933,350.795 311.365,350.660 311.012 C 350.531 310.675,350.624 310.400,350.867 310.400 C 351.432 310.400,353.188 308.521,352.895 308.229 C 352.774 308.107,353.153 307.565,353.737 307.023 C 354.322 306.481,354.800 305.932,354.800 305.802 C 354.800 305.673,355.134 305.208,355.542 304.770 C 355.950 304.332,356.625 303.261,357.042 302.391 C 357.459 301.521,357.935 300.807,358.100 300.805 C 358.265 300.802,358.400 300.462,358.400 300.049 C 358.400 299.636,358.670 299.074,359.000 298.800 C 359.330 298.526,359.600 298.073,359.600 297.794 C 359.600 297.514,359.870 297.182,360.200 297.055 C 360.530 296.929,360.800 296.524,360.800 296.157 C 360.800 295.789,361.062 295.288,361.383 295.044 C 361.703 294.800,362.049 294.121,362.150 293.535 C 362.251 292.949,362.567 292.049,362.852 291.535 C 363.137 291.021,363.334 290.471,363.290 290.314 C 363.246 290.157,363.493 290.138,363.840 290.271 C 364.324 290.456,364.439 290.290,364.335 289.556 C 364.244 288.913,364.461 288.466,365.000 288.190 C 365.440 287.964,365.858 287.379,365.928 286.890 C 365.998 286.400,366.234 286.000,366.451 286.000 C 366.669 286.000,366.748 285.839,366.626 285.642 C 366.504 285.445,366.665 285.184,366.983 285.062 C 367.315 284.935,367.493 284.485,367.402 284.009 C 367.314 283.552,367.412 283.284,367.621 283.413 C 367.829 283.542,368.000 283.287,368.000 282.847 C 368.000 282.407,368.183 281.934,368.407 281.796 C 368.630 281.658,368.718 281.392,368.603 281.205 C 368.487 281.018,368.668 280.590,369.003 280.254 C 369.339 279.918,369.590 279.498,369.560 279.321 C 369.423 278.515,369.635 277.975,370.000 278.200 C 370.227 278.340,370.400 278.004,370.400 277.424 C 370.400 276.861,370.591 276.400,370.824 276.400 C 371.057 276.400,371.135 276.219,370.998 275.997 C 370.861 275.776,371.020 275.490,371.351 275.363 C 371.750 275.210,371.904 274.739,371.806 273.966 C 371.725 273.325,371.792 272.800,371.955 272.800 C 372.225 272.800,373.600 270.261,373.600 269.763 C 373.600 269.647,373.375 269.667,373.100 269.806 C 372.825 269.945,372.870 269.821,373.200 269.530 C 374.083 268.750,374.933 266.939,374.639 266.463 C 374.498 266.235,374.684 265.881,375.051 265.675 C 375.477 265.437,375.641 265.001,375.504 264.476 C 375.369 263.959,375.511 263.566,375.887 263.422 C 376.291 263.267,376.407 262.883,376.245 262.238 C 376.083 261.593,376.199 261.209,376.603 261.054 C 376.931 260.928,377.200 260.380,377.200 259.836 C 377.200 259.292,377.356 258.751,377.546 258.633 C 377.736 258.516,377.842 257.964,377.781 257.408 C 377.720 256.851,377.836 256.498,378.038 256.623 C 378.636 256.993,378.933 255.642,378.396 254.995 C 377.989 254.504,378.033 254.400,378.651 254.400 C 379.189 254.400,379.415 254.090,379.452 253.300 C 379.481 252.695,379.604 251.660,379.725 251.000 C 379.846 250.340,379.957 249.564,379.972 249.276 C 379.988 248.988,380.143 248.841,380.317 248.949 C 380.491 249.056,380.676 248.597,380.727 247.928 C 380.778 247.259,381.000 246.374,381.220 245.963 C 381.440 245.551,381.552 244.591,381.468 243.828 C 381.368 242.928,381.501 242.370,381.846 242.238 C 382.168 242.114,382.355 241.462,382.322 240.581 C 382.292 239.783,382.469 239.005,382.715 238.853 C 382.978 238.690,383.083 237.941,382.970 237.032 C 382.836 235.949,382.975 235.270,383.435 234.762 C 383.966 234.175,384.010 233.805,383.666 232.818 C 383.358 231.935,383.364 231.600,383.687 231.600 C 383.933 231.600,384.015 231.482,383.870 231.337 C 383.725 231.192,383.807 230.833,384.051 230.539 C 384.295 230.245,384.400 229.643,384.285 229.202 C 384.169 228.761,384.235 228.400,384.430 228.400 C 384.625 228.400,384.670 227.562,384.529 226.537 C 384.374 225.407,384.422 224.767,384.651 224.908 C 384.859 225.036,385.057 224.794,385.091 224.371 C 385.224 222.742,385.214 220.968,385.067 220.200 C 384.982 219.760,385.113 219.272,385.357 219.115 C 385.931 218.745,385.919 186.438,385.344 184.400 C 385.126 183.630,385.057 182.460,385.191 181.800 C 385.324 181.140,385.312 180.060,385.164 179.400 C 385.016 178.740,384.855 178.470,384.806 178.800 C 384.758 179.130,384.569 178.770,384.386 178.000 C 384.190 177.172,384.207 176.546,384.427 176.467 C 384.929 176.287,384.905 174.800,384.400 174.800 C 384.180 174.800,384.000 174.609,384.000 174.376 C 384.000 174.143,384.180 174.064,384.400 174.200 C 385.000 174.571,384.881 174.024,384.218 173.361 C 383.858 173.001,383.684 172.209,383.763 171.289 C 383.833 170.470,383.647 169.316,383.348 168.725 C 383.050 168.134,382.914 167.369,383.046 167.024 C 383.353 166.223,382.882 164.302,382.445 164.572 C 382.262 164.685,382.165 164.126,382.228 163.331 C 382.293 162.516,382.073 161.473,381.725 160.942 C 381.386 160.424,381.241 160.000,381.403 160.000 C 381.565 160.000,381.451 159.695,381.149 159.323 C 380.776 158.863,380.760 158.743,381.100 158.947 C 381.435 159.148,381.600 158.976,381.600 158.424 C 381.600 157.971,381.420 157.600,381.200 157.600 C 380.980 157.600,380.800 157.060,380.800 156.400 C 380.800 155.740,380.631 155.200,380.424 155.200 C 380.217 155.200,379.992 154.525,379.924 153.700 C 379.856 152.875,379.617 152.231,379.392 152.269 C 379.151 152.310,379.048 151.678,379.139 150.717 C 379.252 149.532,379.165 149.174,378.816 149.390 C 378.472 149.603,378.393 149.339,378.534 148.443 C 378.682 147.509,378.578 147.200,378.118 147.200 C 377.685 147.200,377.561 146.914,377.694 146.220 C 377.810 145.615,377.671 145.159,377.331 145.029 C 376.976 144.893,376.864 144.483,377.016 143.879 C 377.162 143.297,377.029 142.756,376.667 142.456 C 376.342 142.186,376.176 141.615,376.292 141.168 C 376.435 140.624,376.325 140.404,375.951 140.483 C 375.582 140.561,375.443 140.295,375.529 139.676 C 375.600 139.168,375.423 138.469,375.135 138.122 C 374.847 137.775,374.590 137.291,374.564 137.046 C 374.466 136.149,373.899 134.800,373.620 134.800 C 373.462 134.800,373.333 134.225,373.333 133.522 C 373.333 132.819,373.122 132.174,372.864 132.088 C 372.606 132.002,372.490 131.778,372.606 131.590 C 372.723 131.402,372.420 130.877,371.933 130.424 C 371.447 129.971,371.263 129.600,371.525 129.600 C 371.786 129.600,372.000 129.420,372.000 129.200 C 372.000 128.980,371.700 128.800,371.333 128.800 C 370.967 128.800,370.785 128.682,370.930 128.537 C 371.075 128.392,370.970 127.997,370.697 127.660 C 370.285 127.151,370.302 127.105,370.800 127.392 C 371.255 127.654,371.237 127.551,370.729 126.969 C 370.359 126.546,369.999 126.020,369.929 125.800 C 369.858 125.580,369.656 125.448,369.481 125.506 C 369.306 125.565,369.192 125.385,369.228 125.106 C 369.363 124.077,369.189 123.560,368.790 123.806 C 368.565 123.945,368.419 123.911,368.466 123.730 C 368.612 123.172,367.954 120.800,367.653 120.800 C 367.498 120.800,367.341 120.411,367.305 119.936 C 367.269 119.461,367.077 118.966,366.877 118.836 C 366.677 118.706,366.560 118.297,366.617 117.928 C 366.689 117.463,366.527 117.330,366.095 117.496 C 365.652 117.666,365.563 117.583,365.792 117.213 C 366.001 116.875,365.777 116.415,365.158 115.910 C 364.631 115.481,364.425 115.247,364.700 115.389 C 364.975 115.531,365.200 115.457,365.200 115.224 C 365.200 114.991,364.930 114.800,364.600 114.800 C 364.270 114.800,364.021 114.665,364.047 114.500 C 364.180 113.661,363.951 113.183,363.538 113.438 C 363.264 113.607,363.185 113.549,363.342 113.294 C 363.488 113.058,363.364 112.621,363.067 112.324 C 362.769 112.027,362.572 111.472,362.628 111.092 C 362.684 110.711,362.544 110.400,362.318 110.400 C 362.092 110.400,362.001 110.040,362.116 109.599 C 362.231 109.159,362.162 108.900,361.963 109.023 C 361.763 109.146,361.600 109.046,361.600 108.800 C 361.600 108.554,361.440 108.451,361.245 108.572 C 360.812 108.840,359.905 107.828,360.260 107.473 C 360.400 107.333,360.286 106.945,360.008 106.610 C 359.730 106.274,359.648 106.000,359.826 106.000 C 360.005 106.000,359.741 105.618,359.241 105.152 C 358.740 104.686,357.992 103.516,357.579 102.552 C 357.166 101.588,356.648 100.800,356.427 100.800 C 356.206 100.800,356.124 100.543,356.244 100.230 C 356.372 99.895,356.037 99.381,355.431 98.984 C 354.864 98.612,354.400 98.046,354.400 97.725 C 354.400 97.405,354.175 96.890,353.900 96.581 C 353.625 96.273,353.040 95.551,352.600 94.978 C 352.160 94.405,351.575 93.693,351.300 93.396 C 351.025 93.100,350.800 92.664,350.800 92.429 C 350.800 92.193,350.620 92.000,350.400 92.000 C 350.180 92.000,350.000 91.730,350.000 91.400 C 350.000 91.070,349.719 90.800,349.376 90.800 C 349.033 90.800,348.864 90.620,349.000 90.400 C 349.136 90.180,349.057 90.000,348.824 90.000 C 348.591 90.000,348.429 89.865,348.464 89.700 C 348.577 89.162,347.924 88.000,347.615 88.191 C 347.449 88.293,346.903 87.577,346.400 86.600 C 345.897 85.623,345.352 84.906,345.188 85.007 C 345.025 85.108,344.668 84.923,344.396 84.596 C 344.124 84.268,344.059 83.995,344.251 83.988 C 344.443 83.981,344.285 83.792,343.900 83.568 C 343.515 83.344,343.200 82.981,343.200 82.762 C 343.200 82.543,342.750 81.914,342.200 81.364 C 341.650 80.814,341.200 80.192,341.200 79.982 C 341.200 79.772,340.885 79.587,340.500 79.571 C 340.115 79.555,339.260 78.890,338.600 78.092 C 337.940 77.294,337.670 76.780,338.000 76.950 C 338.330 77.120,338.251 76.976,337.824 76.630 C 337.396 76.283,337.179 76.000,337.340 76.000 C 337.501 76.000,336.274 74.650,334.613 73.000 C 332.952 71.350,331.385 70.000,331.130 70.000 C 330.875 70.000,330.776 69.891,330.909 69.758 C 331.205 69.461,329.401 67.600,328.818 67.600 C 328.588 67.600,328.400 67.330,328.400 67.000 C 328.400 66.670,328.119 66.400,327.776 66.400 C 327.402 66.400,327.268 66.213,327.442 65.932 C 327.635 65.620,327.516 65.547,327.086 65.712 C 326.675 65.869,326.361 65.707,326.221 65.266 C 326.100 64.885,325.458 64.252,324.793 63.860 C 324.121 63.462,323.705 62.954,323.855 62.711 C 324.003 62.472,323.948 62.385,323.734 62.517 C 323.520 62.649,322.745 62.063,322.012 61.214 C 321.164 60.232,320.460 59.756,320.074 59.904 C 319.679 60.055,319.569 59.973,319.758 59.668 C 319.943 59.369,319.751 59.200,319.224 59.200 C 318.771 59.200,318.437 59.065,318.483 58.900 C 318.631 58.362,316.098 56.000,315.373 56.000 C 314.984 56.000,314.783 55.883,314.926 55.741 C 315.307 55.359,313.600 54.000,312.739 54.000 C 312.332 54.000,312.000 53.801,312.000 53.558 C 312.000 52.959,309.940 51.373,309.341 51.511 C 309.077 51.572,308.744 51.254,308.602 50.805 C 308.459 50.356,308.194 50.080,308.013 50.192 C 307.832 50.304,307.581 50.126,307.454 49.798 C 307.328 49.469,306.960 49.200,306.635 49.200 C 306.311 49.200,305.796 48.844,305.491 48.408 C 305.185 47.972,304.510 47.551,303.989 47.471 C 303.468 47.392,302.973 47.118,302.888 46.863 C 302.803 46.609,302.578 46.400,302.387 46.400 C 302.197 46.400,301.559 45.953,300.970 45.407 C 300.381 44.862,299.742 44.512,299.550 44.631 C 299.357 44.750,299.200 44.637,299.200 44.381 C 299.200 44.124,298.922 44.021,298.579 44.153 C 298.238 44.284,298.063 44.222,298.190 44.015 C 298.404 43.670,297.013 42.647,296.285 42.614 C 296.112 42.606,295.816 42.349,295.626 42.042 C 295.436 41.734,294.993 41.594,294.640 41.729 C 294.246 41.880,294.000 41.765,294.000 41.430 C 294.000 40.924,293.571 40.615,292.600 40.423 C 292.380 40.379,292.054 40.082,291.875 39.763 C 291.697 39.444,291.378 39.290,291.166 39.421 C 290.723 39.695,288.400 38.755,288.400 38.302 C 288.400 38.136,288.170 38.000,287.888 38.000 C 287.607 38.000,287.117 37.640,286.800 37.200 C 286.483 36.760,285.903 36.400,285.512 36.400 C 285.120 36.400,284.800 36.230,284.800 36.023 C 284.800 35.816,284.423 35.718,283.963 35.807 C 283.349 35.925,283.188 35.808,283.357 35.368 C 283.491 35.019,283.381 34.802,283.094 34.849 C 282.152 35.004,280.400 34.311,280.400 33.783 C 280.400 33.435,280.054 33.316,279.391 33.436 C 278.716 33.558,278.302 33.409,278.139 32.986 C 278.006 32.639,277.662 32.444,277.374 32.555 C 277.087 32.665,276.795 32.622,276.726 32.459 C 276.545 32.033,272.929 30.400,272.166 30.400 C 271.813 30.400,270.956 29.996,270.262 29.502 C 269.568 29.007,268.955 28.647,268.900 28.702 C 268.565 29.032,267.197 28.729,267.417 28.373 C 267.562 28.139,267.437 27.987,267.140 28.036 C 266.517 28.140,265.462 27.786,263.906 26.950 C 263.305 26.626,262.585 26.399,262.306 26.444 C 261.769 26.531,260.652 26.183,259.505 25.571 C 259.123 25.367,258.538 25.200,258.205 25.200 C 257.872 25.200,257.600 25.020,257.600 24.800 C 257.600 24.580,256.959 24.400,256.176 24.400 C 255.208 24.400,254.843 24.253,255.036 23.942 C 255.234 23.621,255.014 23.560,254.305 23.738 C 253.630 23.907,253.121 23.787,252.782 23.378 C 252.501 23.040,252.005 22.866,251.680 22.991 C 251.354 23.116,250.686 22.955,250.195 22.633 C 249.704 22.311,248.911 22.151,248.433 22.276 C 247.863 22.425,247.384 22.257,247.042 21.789 C 246.702 21.325,246.220 21.154,245.660 21.300 C 245.187 21.424,244.800 21.351,244.800 21.139 C 244.800 20.926,244.235 20.841,243.545 20.950 C 242.738 21.077,242.076 20.933,241.690 20.547 C 241.314 20.171,240.514 19.988,239.549 20.058 C 238.702 20.119,237.791 19.951,237.525 19.685 C 237.258 19.418,236.296 19.200,235.387 19.200 C 234.477 19.200,233.603 19.070,233.445 18.911 C 233.183 18.650,232.629 18.581,229.676 18.443 C 229.127 18.417,228.860 18.226,229.018 17.971 C 229.200 17.677,228.581 17.598,227.057 17.721 C 225.735 17.828,224.450 17.704,223.893 17.415 C 223.372 17.144,221.587 16.944,219.878 16.964 C 218.185 16.984,216.745 16.836,216.679 16.636 C 216.609 16.426,211.332 16.305,204.179 16.349 C 189.793 16.438,191.605 16.447,188.600 16.269 C 187.280 16.191,185.840 16.204,185.400 16.297 M277.692 74.876 C 277.796 75.187,278.636 75.316,280.112 75.248 C 281.991 75.161,282.527 75.293,283.286 76.030 C 283.789 76.518,283.947 76.773,283.638 76.597 C 283.281 76.393,283.172 76.431,283.338 76.700 C 283.488 76.942,284.260 77.035,285.136 76.918 C 286.446 76.742,286.793 76.866,287.494 77.756 C 287.946 78.330,288.604 78.800,288.958 78.800 C 289.311 78.800,289.600 78.999,289.600 79.243 C 289.600 79.486,289.836 79.595,290.125 79.484 C 290.413 79.374,290.998 79.804,291.425 80.440 C 291.851 81.077,292.515 81.598,292.900 81.599 C 293.285 81.599,293.600 81.780,293.600 82.000 C 293.600 82.220,293.735 82.358,293.900 82.308 C 294.374 82.162,297.225 84.242,296.941 84.526 C 296.800 84.666,296.981 84.895,297.343 85.033 C 297.704 85.172,298.000 85.691,298.000 86.187 C 298.000 86.927,298.175 87.056,298.973 86.903 C 299.820 86.741,299.916 86.835,299.710 87.621 C 299.547 88.246,299.617 88.437,299.937 88.239 C 300.204 88.074,300.400 88.191,300.400 88.515 C 300.400 89.344,301.616 91.637,301.948 91.432 C 302.105 91.335,302.161 91.873,302.073 92.628 C 301.972 93.486,301.695 94.000,301.333 94.000 C 301.014 94.000,300.871 94.192,301.016 94.427 C 301.161 94.661,300.947 95.125,300.540 95.456 C 300.133 95.788,300.070 95.930,300.400 95.771 C 300.730 95.612,300.628 95.845,300.173 96.288 C 299.302 97.138,290.423 98.133,290.922 97.325 C 291.044 97.128,290.542 97.037,289.807 97.123 C 288.517 97.274,288.076 96.938,287.539 95.400 C 287.463 95.180,287.265 95.045,287.100 95.100 C 286.935 95.155,286.800 94.930,286.800 94.600 C 286.800 94.270,286.658 94.000,286.485 94.000 C 286.003 94.000,282.591 90.675,282.303 89.924 C 282.141 89.501,281.763 89.337,281.259 89.469 C 280.722 89.609,280.320 89.398,280.005 88.810 C 279.635 88.118,279.245 87.969,278.071 88.070 C 277.262 88.140,276.651 88.056,276.714 87.884 C 276.777 87.712,276.565 87.308,276.243 86.986 C 275.615 86.358,266.003 86.090,265.997 86.700 C 265.993 87.109,264.012 88.000,263.108 88.000 C 262.705 88.000,262.267 88.280,262.136 88.623 C 262.004 88.966,261.650 89.151,261.348 89.036 C 261.047 88.920,260.800 88.999,260.800 89.213 C 260.800 89.426,260.440 89.600,260.000 89.600 C 259.560 89.600,259.200 89.791,259.200 90.024 C 259.200 90.257,258.989 90.317,258.732 90.158 C 258.418 89.964,258.347 90.086,258.518 90.530 C 258.674 90.937,258.585 91.154,258.286 91.095 C 258.019 91.043,257.845 91.225,257.900 91.500 C 257.955 91.775,257.730 92.000,257.400 92.000 C 257.070 92.000,256.800 92.191,256.800 92.424 C 256.800 92.657,256.652 92.756,256.470 92.643 C 256.289 92.531,256.154 92.836,256.170 93.320 C 256.191 93.922,255.979 94.182,255.500 94.144 C 255.061 94.110,254.800 94.370,254.800 94.844 C 254.800 95.346,254.517 95.600,253.958 95.600 C 253.219 95.600,253.134 95.793,253.266 97.175 C 253.349 98.041,253.337 98.671,253.241 98.574 C 252.574 97.907,251.600 99.924,251.600 101.973 C 251.600 103.338,251.361 104.563,250.992 105.090 C 249.994 106.515,250.370 144.140,251.378 143.753 C 251.672 143.640,251.772 144.114,251.673 145.153 C 251.559 146.347,251.724 146.924,252.362 147.562 C 252.823 148.023,253.200 148.784,253.200 149.253 C 253.200 149.722,253.516 150.397,253.903 150.753 C 254.289 151.109,254.856 151.889,255.163 152.486 C 255.470 153.084,255.904 153.459,256.128 153.321 C 256.374 153.169,256.435 153.331,256.282 153.730 C 256.132 154.121,256.214 154.352,256.482 154.295 C 256.731 154.243,257.154 154.621,257.422 155.135 C 257.720 155.707,258.014 155.901,258.178 155.635 C 258.646 154.878,259.200 155.164,259.200 156.163 C 259.200 156.915,259.368 157.081,259.967 156.924 C 260.389 156.814,261.064 156.915,261.467 157.150 C 262.030 157.477,262.061 157.583,261.600 157.605 C 259.582 157.705,264.758 158.789,267.276 158.794 C 268.968 158.797,270.464 158.980,270.600 159.200 C 270.736 159.420,271.027 159.600,271.247 159.600 C 271.467 159.600,271.536 159.420,271.400 159.200 C 271.243 158.946,272.311 158.800,274.321 158.800 C 277.065 158.800,277.691 158.662,279.007 157.770 C 279.842 157.203,280.857 156.826,281.262 156.932 C 281.668 157.038,282.000 156.974,282.000 156.790 C 282.000 156.605,282.363 156.339,282.806 156.198 C 283.249 156.057,283.508 155.775,283.382 155.571 C 283.256 155.367,283.634 155.200,284.223 155.200 C 285.128 155.200,285.266 155.056,285.115 154.269 C 284.967 153.491,285.080 153.365,285.804 153.503 C 286.500 153.636,286.664 153.484,286.635 152.734 C 286.615 152.202,286.809 151.841,287.086 151.895 C 287.362 151.949,287.475 151.740,287.348 151.409 C 287.226 151.090,287.466 150.327,287.882 149.714 C 289.245 147.707,289.600 146.405,289.600 143.405 C 289.600 141.778,289.780 140.336,290.000 140.200 C 290.220 140.064,290.400 139.593,290.400 139.153 C 290.400 138.713,290.580 138.464,290.800 138.600 C 291.052 138.756,291.200 137.818,291.200 136.066 C 291.200 132.585,291.817 132.800,281.800 132.800 C 277.326 132.800,273.381 132.691,273.033 132.557 C 272.325 132.286,272.053 121.600,272.753 121.600 C 272.948 121.600,273.201 121.240,273.316 120.800 C 273.502 120.089,277.915 119.565,280.486 119.948 C 280.643 119.971,280.686 119.768,280.581 119.495 C 280.431 119.105,283.055 119.043,292.895 119.200 L 305.400 119.400 305.528 120.300 C 305.598 120.795,305.778 121.200,305.928 121.200 C 306.249 121.200,306.146 133.187,305.822 133.511 C 305.700 133.634,305.600 135.043,305.600 136.643 C 305.600 138.243,305.420 139.664,305.200 139.800 C 304.980 139.936,304.800 141.667,304.800 143.647 C 304.800 145.945,304.655 147.158,304.400 147.000 C 304.167 146.856,304.000 147.263,304.000 147.976 C 304.000 148.649,303.839 149.200,303.642 149.200 C 303.305 149.200,302.872 151.236,302.684 153.704 C 302.638 154.312,302.408 154.735,302.173 154.645 C 301.938 154.555,301.758 154.868,301.773 155.340 C 301.788 155.813,301.593 156.161,301.341 156.114 C 301.069 156.063,300.966 156.348,301.088 156.814 C 301.201 157.249,301.094 157.600,300.847 157.600 C 300.601 157.600,300.397 157.825,300.394 158.100 C 300.390 158.375,299.850 159.209,299.194 159.954 C 298.537 160.699,298.000 161.490,298.000 161.712 C 298.000 162.283,292.814 167.200,292.211 167.200 C 291.937 167.200,291.372 167.652,290.957 168.205 C 290.542 168.758,289.977 169.123,289.701 169.017 C 289.426 168.912,289.200 168.999,289.200 169.213 C 289.200 169.426,288.840 169.600,288.400 169.600 C 287.960 169.600,287.600 169.780,287.600 170.000 C 287.600 170.220,287.319 170.400,286.976 170.400 C 286.633 170.400,286.467 170.584,286.606 170.810 C 286.745 171.035,286.711 171.187,286.530 171.146 C 286.348 171.106,285.930 171.188,285.600 171.329 C 285.270 171.471,283.380 171.634,281.400 171.693 C 279.279 171.756,277.828 171.964,277.868 172.200 C 277.910 172.452,276.393 172.553,273.768 172.474 C 271.475 172.405,269.600 172.180,269.600 171.974 C 269.600 171.756,266.603 171.600,262.400 171.600 C 255.310 171.600,254.997 171.546,255.133 170.359 C 255.148 170.227,254.722 170.202,254.185 170.305 C 253.533 170.430,253.128 170.278,252.963 169.848 C 252.827 169.494,252.555 169.304,252.358 169.426 C 252.161 169.548,252.000 169.446,252.000 169.200 C 252.000 168.954,251.815 168.867,251.589 169.007 C 251.363 169.147,250.868 168.880,250.489 168.415 C 250.110 167.950,249.350 167.340,248.800 167.061 C 248.250 166.782,247.825 166.249,247.856 165.877 C 247.886 165.504,247.779 165.200,247.617 165.200 C 247.035 165.200,245.621 163.712,245.907 163.400 C 246.068 163.225,245.808 163.178,245.330 163.296 C 244.700 163.451,244.519 163.357,244.673 162.955 C 244.790 162.650,244.686 162.400,244.443 162.400 C 244.199 162.400,244.000 162.119,244.000 161.776 C 244.000 161.433,243.820 161.264,243.600 161.400 C 243.380 161.536,243.200 161.260,243.200 160.786 C 243.200 160.259,242.887 159.843,242.394 159.714 C 241.932 159.593,241.633 159.225,241.694 158.852 C 241.752 158.493,241.620 158.228,241.400 158.262 C 241.180 158.296,240.768 158.071,240.484 157.762 C 240.201 157.453,240.069 157.200,240.192 157.200 C 240.316 157.200,240.053 156.487,239.608 155.616 C 239.164 154.745,238.800 153.755,238.800 153.416 C 238.800 153.077,238.620 152.800,238.400 152.800 C 238.180 152.800,238.000 152.254,238.000 151.587 C 238.000 150.872,237.751 150.279,237.393 150.142 C 237.059 150.014,236.810 149.704,236.840 149.454 C 237.248 146.055,236.723 140.030,236.000 139.800 C 234.733 139.398,234.747 111.812,236.014 111.480 C 236.795 111.276,236.826 110.991,236.780 104.554 C 236.738 98.847,236.826 97.770,237.365 97.376 C 237.780 97.073,238.000 96.296,238.000 95.136 C 238.000 93.381,238.718 91.209,239.300 91.203 C 239.465 91.201,239.600 90.851,239.600 90.424 C 239.600 89.997,239.792 89.528,240.027 89.383 C 240.262 89.238,240.343 88.828,240.206 88.472 C 240.070 88.116,240.084 87.951,240.239 88.106 C 240.394 88.261,240.777 88.075,241.090 87.694 C 241.403 87.312,241.528 87.253,241.368 87.562 C 241.192 87.901,241.238 88.024,241.484 87.872 C 241.709 87.733,241.841 87.149,241.777 86.574 C 241.714 86.000,241.762 85.628,241.882 85.749 C 242.003 85.870,242.882 85.166,243.836 84.184 C 244.790 83.203,245.804 82.400,246.089 82.400 C 246.374 82.400,246.837 82.033,247.116 81.585 C 247.396 81.137,247.844 80.819,248.113 80.877 C 248.381 80.936,249.087 80.493,249.682 79.892 C 250.643 78.922,251.786 78.541,253.000 78.786 C 253.220 78.830,253.280 78.747,253.133 78.600 C 252.617 78.084,254.451 76.717,255.413 76.900 C 256.493 77.107,257.399 76.658,257.402 75.915 C 257.403 75.548,258.152 75.400,260.002 75.400 C 261.643 75.400,262.718 75.216,262.920 74.900 C 263.366 74.202,277.460 74.180,277.692 74.876 M138.600 132.800 C 138.757 133.054,143.871 133.200,152.624 133.200 C 160.201 133.200,166.400 133.335,166.399 133.500 C 166.399 133.665,168.424 133.800,170.899 133.800 C 173.823 133.800,175.374 133.947,175.327 134.220 C 175.286 134.451,175.908 134.684,176.707 134.738 C 177.507 134.792,178.393 135.029,178.677 135.264 C 178.961 135.499,179.734 135.612,180.396 135.515 C 181.098 135.412,181.601 135.518,181.603 135.769 C 181.607 136.366,183.526 137.200,184.892 137.200 C 185.530 137.200,186.126 137.462,186.255 137.800 C 186.397 138.170,187.005 138.400,187.843 138.400 C 188.667 138.400,189.514 138.714,190.000 139.200 C 190.440 139.640,191.250 140.000,191.800 140.000 C 192.533 140.000,192.800 140.213,192.800 140.800 C 192.800 141.387,193.067 141.600,193.800 141.600 C 194.350 141.600,194.800 141.754,194.800 141.942 C 194.800 142.130,195.385 142.457,196.100 142.668 C 197.096 142.962,197.378 143.253,197.307 143.911 C 197.248 144.463,197.395 144.700,197.721 144.575 C 198.262 144.367,200.000 145.772,200.000 146.416 C 200.000 146.627,200.339 146.800,200.753 146.800 C 201.692 146.800,204.088 149.195,203.827 149.873 C 203.721 150.149,203.835 150.498,204.079 150.649 C 204.364 150.825,204.419 150.722,204.232 150.362 C 203.904 149.730,204.689 150.669,205.600 151.999 C 205.930 152.481,206.515 153.245,206.900 153.699 C 207.560 154.475,207.757 155.004,207.647 155.700 C 207.621 155.865,207.825 155.955,208.100 155.900 C 208.375 155.845,208.575 156.115,208.544 156.500 C 208.514 156.885,208.668 157.200,208.887 157.200 C 209.106 157.200,209.189 157.452,209.070 157.761 C 208.941 158.098,209.175 158.405,209.660 158.532 C 210.271 158.691,210.434 159.015,210.337 159.871 C 210.253 160.607,210.381 160.965,210.704 160.900 C 210.977 160.845,211.179 160.935,211.153 161.100 C 210.979 162.201,211.256 166.391,211.500 166.353 C 212.671 166.168,212.800 166.510,212.800 169.813 C 212.800 172.209,212.952 173.283,213.310 173.421 C 213.646 173.550,213.766 174.175,213.663 175.261 C 213.554 176.402,213.643 176.821,213.953 176.629 C 214.517 176.280,214.581 181.259,214.019 181.821 C 213.810 182.030,213.594 182.865,213.539 183.675 C 213.485 184.485,213.296 185.059,213.120 184.951 C 212.944 184.842,212.800 186.383,212.800 188.376 C 212.800 191.677,212.732 192.000,212.036 192.000 C 211.394 192.000,211.240 192.369,211.078 194.300 C 210.831 197.258,210.429 198.899,209.829 199.400 C 209.225 199.905,208.649 201.245,208.754 201.900 C 208.799 202.175,208.557 202.400,208.218 202.400 C 207.795 202.400,207.600 202.787,207.600 203.624 C 207.600 204.337,207.433 204.744,207.200 204.600 C 206.979 204.464,206.800 204.751,206.800 205.241 C 206.800 205.729,206.303 206.595,205.695 207.164 C 205.088 207.734,204.593 208.470,204.595 208.800 C 204.598 209.130,204.330 209.400,204.000 209.400 C 203.670 209.400,203.400 209.592,203.400 209.826 C 203.400 210.061,202.932 210.691,202.361 211.226 C 201.261 212.257,200.173 213.998,200.315 214.500 C 200.362 214.665,200.265 214.779,200.100 214.753 C 199.302 214.627,198.778 214.840,199.000 215.201 C 199.137 215.421,198.794 215.774,198.240 215.985 C 197.105 216.416,195.600 217.793,195.600 218.400 C 195.600 218.620,195.240 218.800,194.800 218.800 C 194.106 218.800,193.809 219.362,193.933 220.441 C 193.948 220.573,193.519 220.597,192.980 220.494 C 192.390 220.381,192.000 220.494,192.000 220.777 C 192.000 221.036,191.820 221.136,191.600 221.000 C 191.380 220.864,191.200 221.054,191.200 221.423 C 191.200 221.897,190.965 222.032,190.399 221.884 C 189.959 221.769,189.677 221.801,189.773 221.956 C 190.111 222.503,189.343 223.197,188.306 223.283 C 187.729 223.331,187.265 223.467,187.276 223.585 C 187.360 224.538,187.042 224.800,185.800 224.800 C 184.822 224.800,184.400 224.981,184.400 225.400 C 184.400 225.786,184.013 226.000,183.313 226.000 C 182.636 226.000,181.886 226.395,181.327 227.045 C 180.597 227.895,180.162 228.060,179.002 227.924 C 178.038 227.812,177.632 227.907,177.751 228.216 C 177.864 228.511,177.582 228.609,176.963 228.491 C 176.434 228.390,176.000 228.474,176.000 228.678 C 176.000 228.882,175.633 229.443,175.184 229.925 C 174.335 230.837,174.660 231.176,175.545 230.300 C 175.952 229.898,175.972 230.008,175.649 230.863 C 175.289 231.816,175.352 231.952,176.266 232.181 C 177.150 232.403,177.263 232.613,177.125 233.790 C 177.038 234.535,177.110 235.056,177.284 234.948 C 177.458 234.841,177.600 235.028,177.600 235.364 C 177.600 235.745,177.828 235.888,178.205 235.743 C 178.637 235.577,178.739 235.694,178.562 236.155 C 178.426 236.510,178.514 236.800,178.757 236.800 C 179.001 236.800,179.200 237.070,179.200 237.400 C 179.200 237.730,179.360 238.000,179.555 238.000 C 179.751 238.000,180.026 238.613,180.166 239.361 C 180.307 240.110,180.687 240.824,181.011 240.949 C 181.335 241.073,181.600 241.451,181.600 241.787 C 181.600 242.139,181.951 242.400,182.424 242.400 C 182.877 242.400,183.137 242.578,183.003 242.795 C 182.869 243.012,183.100 243.555,183.516 244.002 C 183.932 244.448,184.518 245.305,184.819 245.907 C 185.119 246.508,185.626 247.315,185.945 247.700 C 186.263 248.085,186.393 248.400,186.233 248.400 C 186.074 248.400,186.226 248.683,186.571 249.029 C 186.917 249.374,187.200 249.914,187.200 250.229 C 187.200 250.543,187.380 250.800,187.600 250.800 C 188.307 250.800,189.601 252.329,189.075 252.543 C 188.807 252.653,188.888 252.751,189.263 252.768 C 189.744 252.791,189.865 253.046,189.703 253.700 C 189.582 254.195,189.620 254.474,189.789 254.319 C 190.348 253.807,192.000 256.217,192.000 257.546 C 192.000 258.278,193.187 259.652,193.213 258.949 C 193.220 258.757,193.477 258.932,193.785 259.339 C 194.093 259.745,194.248 260.330,194.130 260.639 C 193.987 261.011,194.198 261.200,194.757 261.200 C 195.288 261.200,195.605 261.459,195.614 261.900 C 195.628 262.593,196.759 264.893,196.786 264.284 C 196.794 264.110,197.276 264.409,197.857 264.947 C 198.515 265.558,198.821 266.167,198.669 266.564 C 198.512 266.974,198.642 267.200,199.036 267.200 C 199.372 267.200,199.536 267.380,199.400 267.600 C 199.264 267.820,199.343 268.000,199.576 268.000 C 199.809 268.000,200.000 268.366,200.000 268.814 C 200.000 269.514,200.116 269.566,200.830 269.184 C 201.607 268.768,201.629 268.800,201.176 269.670 C 200.910 270.181,200.824 270.477,200.986 270.327 C 201.359 269.980,203.689 272.332,203.414 272.778 C 203.301 272.960,203.567 273.203,204.004 273.317 C 204.479 273.441,204.800 273.863,204.800 274.363 C 204.800 274.941,205.054 275.200,205.624 275.200 C 206.077 275.200,206.337 275.378,206.203 275.595 C 206.069 275.812,206.328 276.386,206.780 276.870 C 207.231 277.355,207.600 277.897,207.600 278.075 C 207.600 278.254,207.825 278.355,208.100 278.300 C 208.375 278.245,208.600 278.470,208.600 278.800 C 208.600 279.130,209.050 279.808,209.600 280.308 C 210.448 281.077,210.509 281.274,210.000 281.601 C 209.487 281.931,209.502 281.989,210.100 281.994 C 210.485 281.997,210.800 282.191,210.800 282.424 C 210.800 282.657,210.963 282.746,211.163 282.623 C 211.362 282.500,211.436 282.742,211.326 283.161 C 211.189 283.687,211.386 284.005,211.963 284.188 C 212.424 284.334,212.800 284.672,212.800 284.939 C 212.800 285.205,213.160 285.683,213.600 286.000 C 214.040 286.317,214.400 286.813,214.400 287.101 C 214.400 287.389,214.715 287.745,215.100 287.892 C 216.125 288.284,217.062 289.274,217.377 290.300 C 217.529 290.795,217.912 291.200,218.227 291.200 C 218.733 291.200,218.965 291.660,218.861 292.459 C 218.843 292.601,219.181 292.625,219.614 292.512 C 220.147 292.373,220.400 292.507,220.400 292.931 C 220.400 293.274,220.940 293.874,221.600 294.264 C 222.260 294.654,222.800 295.114,222.800 295.286 C 222.800 295.459,223.070 295.600,223.400 295.600 C 223.730 295.600,224.000 295.874,224.000 296.210 C 224.000 296.545,224.433 296.984,224.961 297.185 C 225.490 297.386,226.040 297.742,226.185 297.975 C 226.329 298.209,226.887 298.400,227.424 298.400 C 228.050 298.400,228.400 298.628,228.400 299.037 C 228.400 299.388,228.760 299.769,229.200 299.884 C 229.640 299.999,230.000 300.252,230.000 300.447 C 230.000 300.641,230.281 300.800,230.624 300.800 C 230.967 300.800,231.160 300.942,231.052 301.115 C 230.945 301.288,231.333 301.470,231.914 301.518 C 232.496 301.566,233.122 301.874,233.305 302.203 C 233.489 302.531,234.076 302.800,234.610 302.800 C 235.567 302.800,238.155 304.114,237.830 304.435 C 237.738 304.526,238.774 304.552,240.132 304.494 C 243.524 304.348,244.549 305.242,244.723 308.500 C 244.800 309.938,244.686 310.800,244.420 310.800 C 244.131 310.800,244.143 311.039,244.456 311.541 C 244.830 312.140,244.773 312.427,244.159 313.041 C 243.309 313.891,217.200 314.052,217.200 313.207 C 217.200 312.997,216.923 312.932,216.584 313.062 C 216.213 313.204,216.014 313.103,216.084 312.809 C 216.166 312.463,215.467 312.320,213.700 312.320 C 212.325 312.319,211.200 312.157,211.200 311.960 C 211.200 311.762,210.930 311.600,210.600 311.600 C 210.270 311.600,209.999 311.465,209.997 311.300 C 209.992 310.868,207.952 309.982,207.544 310.235 C 207.355 310.352,207.200 310.167,207.200 309.824 C 207.200 309.480,206.863 309.200,206.449 309.200 C 205.581 309.200,204.666 308.268,205.103 307.830 C 205.267 307.667,205.130 307.593,204.800 307.667 C 204.458 307.743,204.250 307.564,204.316 307.251 C 204.392 306.894,204.209 306.788,203.794 306.947 C 203.125 307.204,201.048 305.486,201.491 305.042 C 201.624 304.909,201.433 304.800,201.067 304.800 C 200.700 304.800,200.400 304.620,200.400 304.400 C 200.400 304.180,200.104 304.000,199.743 304.000 C 199.025 304.000,197.102 302.164,196.686 301.081 C 196.543 300.706,196.177 300.400,195.875 300.400 C 195.203 300.400,194.264 299.400,193.435 297.803 C 193.094 297.146,192.497 296.606,192.108 296.604 C 191.718 296.602,191.400 296.330,191.400 296.000 C 191.400 295.291,190.636 294.400,190.029 294.400 C 189.489 294.400,189.478 293.904,190.003 293.283 C 190.225 293.021,190.287 292.894,190.140 293.000 C 189.649 293.356,188.800 292.312,188.800 291.351 C 188.800 290.828,188.665 290.421,188.500 290.447 C 187.683 290.576,187.200 290.344,187.200 289.823 C 187.200 289.505,186.866 289.010,186.457 288.723 C 186.049 288.435,185.592 287.811,185.442 287.336 C 185.292 286.860,184.726 286.181,184.184 285.827 C 183.643 285.472,183.200 284.796,183.200 284.324 C 183.200 283.853,183.086 283.581,182.947 283.720 C 182.652 284.014,181.200 282.283,181.200 281.637 C 181.200 281.397,181.020 281.200,180.800 281.200 C 180.580 281.200,180.400 280.750,180.400 280.200 C 180.400 279.460,180.188 279.200,179.582 279.200 C 179.026 279.200,178.802 278.977,178.882 278.500 C 178.947 278.115,178.793 277.839,178.540 277.887 C 178.287 277.934,177.970 277.535,177.835 276.998 C 177.701 276.462,177.233 275.832,176.795 275.597 C 176.243 275.302,176.000 274.760,176.000 273.823 C 176.000 272.703,175.873 272.508,175.252 272.671 C 174.701 272.815,174.435 272.594,174.244 271.833 C 174.101 271.265,173.718 270.800,173.392 270.800 C 173.001 270.800,172.800 270.393,172.800 269.600 C 172.800 268.800,172.600 268.400,172.200 268.400 C 171.870 268.400,171.600 268.173,171.600 267.896 C 171.600 267.619,171.240 267.168,170.800 266.893 C 170.281 266.569,170.000 265.960,170.000 265.159 C 170.000 264.262,169.782 263.868,169.200 263.716 C 168.760 263.601,168.400 263.258,168.400 262.953 C 168.400 262.649,168.220 262.400,168.000 262.400 C 167.780 262.400,167.645 262.261,167.700 262.092 C 167.755 261.923,167.305 261.250,166.700 260.596 C 166.095 259.943,165.600 259.174,165.600 258.887 C 165.600 258.601,165.240 257.980,164.800 257.508 C 164.360 257.036,164.000 256.413,164.000 256.125 C 164.000 255.836,163.736 255.600,163.413 255.600 C 163.074 255.600,162.916 255.363,163.040 255.040 C 163.158 254.733,163.059 254.360,162.821 254.213 C 162.582 254.065,162.509 253.747,162.659 253.504 C 162.838 253.215,162.686 253.158,162.217 253.338 C 161.642 253.559,161.546 253.451,161.721 252.781 C 161.854 252.272,161.719 251.867,161.371 251.734 C 161.060 251.614,160.923 251.324,161.068 251.090 C 161.235 250.820,161.079 250.761,160.645 250.927 C 160.267 251.072,160.058 251.029,160.181 250.832 C 160.496 250.321,159.987 249.161,159.563 249.423 C 159.368 249.543,159.316 249.362,159.447 249.021 C 159.578 248.679,159.486 248.400,159.243 248.400 C 158.999 248.400,158.800 248.043,158.800 247.608 C 158.800 247.096,158.446 246.726,157.800 246.564 C 156.942 246.349,156.800 246.086,156.800 244.714 C 156.800 243.506,156.663 243.167,156.239 243.330 C 155.422 243.643,155.130 243.169,155.703 242.460 C 156.100 241.971,156.099 241.907,155.700 242.147 C 155.244 242.421,154.983 241.703,155.163 240.670 C 155.194 240.489,155.035 240.455,154.810 240.594 C 154.584 240.733,154.400 240.567,154.400 240.224 C 154.400 239.881,154.220 239.600,154.000 239.600 C 153.780 239.600,153.600 239.319,153.600 238.976 C 153.600 238.633,153.420 238.464,153.200 238.600 C 152.967 238.744,152.800 238.337,152.800 237.624 C 152.800 236.951,152.620 236.400,152.400 236.400 C 152.180 236.400,152.000 236.130,152.000 235.800 C 152.000 235.470,151.779 235.245,151.509 235.300 C 151.240 235.355,150.955 234.981,150.878 234.469 C 150.785 233.859,150.541 233.614,150.168 233.757 C 149.856 233.877,149.600 233.756,149.601 233.487 C 149.601 233.121,148.160 233.030,143.796 233.121 C 139.310 233.214,137.946 233.123,137.792 232.721 C 137.586 232.180,130.884 232.145,129.600 232.678 C 129.270 232.815,128.851 232.894,128.670 232.853 C 128.488 232.813,128.449 233.123,128.582 233.543 C 128.736 234.028,128.602 234.391,128.212 234.540 C 127.267 234.903,127.287 274.430,128.233 275.376 C 128.719 275.861,128.835 276.657,128.733 278.805 C 128.660 280.343,128.735 281.601,128.900 281.601 C 129.065 281.600,129.200 283.927,129.200 286.771 C 129.200 290.835,129.329 292.071,129.800 292.543 C 130.522 293.265,130.578 294.462,129.920 295.120 C 129.603 295.437,129.587 295.600,129.874 295.600 C 130.113 295.600,130.608 296.230,130.973 297.000 C 131.339 297.770,131.856 298.400,132.123 298.400 C 132.389 298.400,132.837 298.767,133.117 299.216 C 133.397 299.664,133.780 299.936,133.968 299.820 C 134.156 299.704,134.555 299.911,134.855 300.281 C 135.324 300.860,135.316 300.904,134.800 300.600 C 134.282 300.295,134.275 300.339,134.749 300.923 C 135.051 301.295,135.634 301.600,136.044 301.600 C 136.455 301.600,137.130 301.890,137.544 302.245 C 138.161 302.773,139.215 302.878,143.358 302.825 C 147.882 302.766,148.542 302.847,149.572 303.580 C 150.205 304.031,151.208 304.400,151.801 304.400 C 153.611 304.400,155.200 306.476,155.200 308.842 C 155.200 309.919,155.032 310.800,154.827 310.800 C 154.622 310.800,154.340 311.160,154.200 311.600 C 153.949 312.392,153.595 312.400,119.120 312.400 L 84.294 312.400 83.555 311.548 C 83.149 311.080,82.913 310.540,83.032 310.348 C 83.150 310.157,83.057 310.000,82.824 310.000 C 82.591 310.000,82.400 309.280,82.400 308.400 C 82.400 307.051,82.529 306.800,83.224 306.800 C 83.677 306.800,83.958 306.656,83.850 306.481 C 83.584 306.050,84.017 305.502,85.100 304.900 C 85.595 304.625,86.405 304.175,86.900 303.900 C 87.395 303.625,87.913 303.246,88.050 303.057 C 88.188 302.868,89.853 302.778,91.750 302.857 C 93.648 302.936,95.200 302.865,95.200 302.700 C 95.200 302.535,95.470 302.400,95.800 302.400 C 96.130 302.400,96.400 302.220,96.400 302.000 C 96.400 301.780,96.850 301.600,97.400 301.600 C 97.950 301.600,98.356 301.465,98.303 301.300 C 98.150 300.825,100.474 298.399,100.856 298.635 C 101.045 298.752,101.200 298.489,101.200 298.051 C 101.200 297.612,101.541 297.146,101.957 297.014 C 102.593 296.812,103.092 295.992,103.346 294.733 C 103.376 294.587,103.535 294.332,103.700 294.167 C 103.865 294.002,104.000 293.276,104.000 292.553 C 104.000 291.718,104.255 291.097,104.700 290.848 C 105.756 290.257,105.793 157.023,104.737 156.251 C 104.324 155.949,104.013 155.019,103.912 153.783 C 103.810 152.529,103.576 151.837,103.275 151.900 C 102.992 151.960,102.800 151.517,102.800 150.803 C 102.800 150.040,102.510 149.426,102.000 149.107 C 101.560 148.832,101.200 148.207,101.200 147.716 C 101.200 147.088,101.023 146.893,100.600 147.055 C 100.222 147.200,100.000 147.051,100.000 146.650 C 100.000 146.301,99.550 145.902,99.000 145.764 C 98.450 145.626,98.000 145.397,98.000 145.254 C 98.000 144.644,94.685 143.659,91.500 143.323 C 90.455 143.213,89.685 142.985,89.789 142.817 C 89.893 142.649,88.891 142.398,87.561 142.259 C 85.120 142.004,83.355 141.204,83.903 140.600 C 84.066 140.420,83.894 140.382,83.520 140.516 C 83.037 140.689,82.905 140.592,83.063 140.180 C 83.186 139.861,83.086 139.600,82.843 139.600 C 82.219 139.600,82.253 133.507,82.880 132.880 C 83.503 132.257,138.216 132.178,138.600 132.800 M130.800 146.600 C 130.526 146.930,130.054 147.200,129.751 147.200 C 129.287 147.200,129.200 152.768,129.200 182.400 L 129.200 217.600 145.269 217.600 C 158.702 217.600,161.442 217.505,161.974 217.023 C 162.325 216.706,163.454 216.403,164.484 216.350 C 165.514 216.296,166.265 216.106,166.155 215.926 C 166.044 215.747,166.244 215.600,166.600 215.600 C 166.956 215.600,167.136 215.420,167.000 215.200 C 166.853 214.962,167.324 214.800,168.162 214.800 C 169.185 214.800,169.695 214.569,170.022 213.960 C 170.358 213.330,170.757 213.162,171.611 213.287 C 172.238 213.379,172.741 213.352,172.728 213.227 C 172.636 212.321,172.999 211.914,174.400 211.353 C 175.280 211.001,176.000 210.463,176.000 210.157 C 176.000 209.850,176.360 209.600,176.800 209.600 C 177.240 209.600,177.600 209.359,177.600 209.064 C 177.600 208.770,178.041 208.327,178.580 208.082 C 179.267 207.769,179.513 207.387,179.401 206.807 C 179.313 206.348,179.412 206.084,179.624 206.215 C 179.834 206.344,180.107 206.187,180.230 205.865 C 180.354 205.543,180.827 205.182,181.281 205.063 C 181.881 204.906,182.047 204.623,181.890 204.023 C 181.772 203.570,181.836 203.299,182.034 203.421 C 182.232 203.543,182.710 203.459,183.097 203.234 C 183.484 203.009,183.660 202.819,183.490 202.812 C 183.008 202.793,184.364 200.400,184.857 200.400 C 185.097 200.400,185.199 200.040,185.084 199.599 C 184.969 199.159,185.038 198.900,185.237 199.023 C 185.437 199.146,185.600 198.877,185.600 198.424 C 185.600 197.971,185.798 197.600,186.040 197.600 C 186.315 197.600,186.428 196.942,186.340 195.851 C 186.249 194.716,186.351 194.160,186.631 194.267 C 186.867 194.358,187.299 193.711,187.590 192.829 C 187.881 191.948,188.283 191.328,188.484 191.452 C 188.696 191.583,188.816 190.051,188.770 187.796 C 188.717 185.146,188.843 183.820,189.169 183.619 C 189.800 183.229,189.675 177.596,189.040 177.840 C 188.735 177.957,188.622 176.788,188.673 174.028 C 188.734 170.701,188.651 170.082,188.169 170.267 C 187.765 170.422,187.665 170.296,187.837 169.848 C 187.984 169.464,187.836 169.112,187.467 168.970 C 187.128 168.840,186.941 168.497,187.053 168.207 C 187.164 167.918,187.062 167.562,186.827 167.417 C 186.592 167.272,186.400 166.713,186.400 166.176 C 186.400 165.639,186.220 165.200,186.000 165.200 C 185.780 165.200,185.600 164.840,185.600 164.400 C 185.600 163.960,185.426 163.600,185.213 163.600 C 184.999 163.600,184.928 163.332,185.054 163.003 C 185.181 162.673,185.017 162.305,184.686 162.178 C 184.358 162.052,183.984 161.419,183.854 160.771 C 183.723 160.117,183.393 159.640,183.109 159.697 C 182.829 159.754,182.643 159.581,182.695 159.314 C 182.750 159.032,182.539 158.925,182.191 159.059 C 181.774 159.219,181.662 159.104,181.824 158.681 C 181.974 158.290,181.761 157.978,181.229 157.809 C 180.746 157.656,180.400 157.204,180.400 156.726 C 180.400 156.111,180.206 155.957,179.622 156.110 C 179.051 156.259,178.812 156.086,178.722 155.457 C 178.649 154.945,178.331 154.620,177.931 154.650 C 177.518 154.681,177.344 154.491,177.474 154.150 C 177.591 153.848,177.476 153.600,177.219 153.600 C 176.963 153.600,176.848 153.445,176.965 153.256 C 177.082 153.067,176.728 152.962,176.179 153.022 C 175.437 153.104,175.209 152.961,175.290 152.466 C 175.371 151.975,175.049 151.766,174.061 151.672 C 172.962 151.566,172.758 151.405,172.923 150.772 C 173.103 150.083,172.903 150.000,171.059 150.000 C 169.426 150.000,168.888 149.832,168.493 149.200 C 168.102 148.574,167.560 148.400,165.997 148.400 C 164.804 148.400,164.000 148.222,164.000 147.957 C 164.000 147.714,163.723 147.621,163.385 147.750 C 163.047 147.880,162.685 147.765,162.581 147.493 C 162.444 147.134,161.252 147.034,158.197 147.126 C 154.603 147.233,154.000 147.162,154.000 146.626 C 154.000 145.701,131.567 145.676,130.800 146.600 " stroke="none" fill="#ffffff" fill-rule="evenodd"/></svg>