<svg
	class="{{ with .class }}{{ . }} {{ end }}icon icon-researchgate"
	viewBox="0 0 24 24"
	height="24"
	width="24"
>
<g transform="scale(0.25531915)">
	<g>
		<path d="M 89,0 H 5 C 2.238,0 0,2.238 0,5 v 84 c 0,2.762 2.238,5 5,5 h 84 c 2.762,0 5,-2.238 5,-5 V 5 C 94,2.238 91.762,0 89,0 Z M 45.064,73.975 H 33.082 C 32.519,73.219 32.16,72.352 32.008,71.37 31.854,70.388 31.752,69.369 31.699,68.311 L 31.4,57.959 C 31.298,55.842 30.775,54.184 29.824,52.973 28.876,51.762 27.273,51.159 25.025,51.159 H 19.248 V 73.975 H 8.313 V 20.028 H 28.51 c 4.557,0 8.101,1.146 10.632,3.438 2.529,2.293 3.796,5.78 3.796,10.465 0,3.626 -0.734,6.586 -2.203,8.878 -1.467,2.292 -3.744,3.765 -6.832,4.421 v 0.15 c 1.872,0.252 3.363,0.717 4.479,1.396 1.112,0.683 1.975,1.662 2.581,2.945 0.607,1.285 1.025,2.91 1.253,4.875 0.228,1.965 0.366,4.381 0.417,7.254 0.05,2.868 0.217,5.06 0.495,6.572 0.277,1.51 0.923,2.542 1.937,3.098 z m 40.624,0 H 77.637 V 68.99 h -0.15 c -1.317,2.111 -2.897,3.652 -4.746,4.604 -1.85,0.96 -4.061,1.438 -6.643,1.438 -3.342,0 -6.063,-0.616 -8.164,-1.851 -2.103,-1.232 -3.746,-3.06 -4.935,-5.479 C 51.811,65.286 51.01,62.3 50.607,58.752 50.2,55.197 49.998,51.081 49.998,46.398 c 0,-4.536 0.291,-8.515 0.875,-11.939 0.581,-3.425 1.58,-6.284 2.999,-8.574 1.416,-2.29 3.291,-4.018 5.618,-5.177 2.326,-1.159 5.24,-1.739 8.732,-1.739 5.971,0 10.274,1.475 12.907,4.422 2.631,2.947 3.948,7.166 3.948,12.655 H 74.6 c 0,-0.956 -0.113,-1.975 -0.342,-3.062 -0.226,-1.082 -0.596,-2.062 -1.102,-2.944 -0.504,-0.881 -1.149,-1.611 -1.936,-2.193 -0.783,-0.577 -1.734,-0.868 -2.848,-0.868 -2.633,0 -4.53,1.463 -5.693,4.383 -1.166,2.921 -1.746,7.758 -1.746,14.509 0,3.271 0.101,6.207 0.301,8.8 0.201,2.596 0.574,4.812 1.104,6.651 0.531,1.836 1.291,3.245 2.277,4.229 0.988,0.979 2.264,1.473 3.836,1.473 0.656,0 1.377,-0.178 2.162,-0.53 0.785,-0.351 1.52,-0.879 2.201,-1.584 0.684,-0.706 1.254,-1.599 1.709,-2.685 0.455,-1.084 0.686,-2.353 0.686,-3.814 v -5.516 h -7.215 v -8.011 h 17.691 v 29.089 h 0.003 z"
		/>
		<path d="m 24.41,28.038 h -5.162 v 15.561 h 4.556 c 2.631,0 4.655,-0.615 6.074,-1.851 1.416,-1.231 2.124,-3.311 2.124,-6.231 0,-4.985 -2.528,-7.479 -7.592,-7.479 z" />
	</g>
</g>
</svg>
