<svg class="{{ with .class }}{{ . }} {{ end }}icon icon-weibo" width="24 " height="24 " viewBox="0 0 24 24"><path d="M20.19 14.20c0 3.36-4.53 6.42-9.93 6.42C5.32 20.62 1.00 18.19 1.00 14.53c0-1.95 1.18-4.09 3.24-6.09 2.83-2.75 6.23-4.03 7.86-2.45 0.50 0.48 0.72 1.12 0.72 1.86 1.98-0.58 3.65-0.40 4.48 0.75 0.45 0.62 0.53 1.38 0.33 2.21 1.51 0.61 2.57 1.77 2.57 3.38zm-4.44-2.07c-0.39-0.41-0.40-0.92-0.20-1.41 0.21-0.51 0.21-0.81 0.12-0.94-0.26-0.37-1.53-0.36-3.19 0.31a2.04 2.04 0 0 1-0.51 0.14c-0.34 0.05-0.67 0.00-0.98-0.27-0.42-0.36-0.47-0.85-0.32-1.32 0.22-0.67 0.18-1.08 0.04-1.22-0.19-0.18-0.78-0.19-1.66 0.14-1.07 0.40-2.30 1.22-3.41 2.31-1.51 1.59-2.48 3.24-2.48 4.54 0 2.24 3.28 4.08 7.27 4.08 4.42 0 7.93-2.37 7.93-4.42 0-.74-0.64-1.34-1.67-1.65-0.39-0.11-0.54-0.17-0.77-0.42zm7.05-1.62a1 1 0 0 1-1.94-0.50 4 4 0 0 0-4.69-4.92 1 1 0 1 1-0.41-1.96 6 6 0 0 1 7.04 7.38z"/></svg>
